{
 "id": "LPT0R17XM5",
 "fps": {
  "num": 30,
  "den": 1
 },
 "display_ratio": {
  "num": 16,
  "den": 9
 },
 "pixel_ratio": {
  "num": 1,
  "den": 1
 },
 "width": 1280,
 "height": 720,
 "sample_rate": 44100,
 "channels": 2,
 "channel_layout": 3,
 "settings": {},
 "clips": [
  {
   "alpha": {
    "Points": [
     {
      "co": {
       "X": 1.0,
       "Y": 1.0
      },
      "interpolation": 2
     }
    ]
   },
   "anchor": 0,
   "channel_filter": {
    "Points": [
     {
      "co": {
       "X": 1.0,
       "Y": -1.0
      },
      "interpolation": 2
     }
    ]
   },
   "channel_mapping": {
    "Points": [
     {
      "co": {
       "X": 1.0,
       "Y": -1.0
      },
      "interpolation": 2
     }
    ]
   },
   "display": 0,
   "duration": 3600.0,
   "effects": [],
   "end": 11.950000000000001,
   "gravity": 4,
   "has_audio": {
    "Points": [
     {
      "co": {
       "X": 1.0,
       "Y": -1.0
      },
      "interpolation": 2
     }
    ]
   },
   "has_video": {
    "Points": [
     {
      "co": {
       "X": 1.0,
       "Y": -1.0
      },
      "interpolation": 2
     }
    ]
   },
   "id": "I8ZAUIC6E8",
   "layer": 5000000,
   "location_x": {
    "Points": [
     {
      "co": {
       "X": 1.0,
       "Y": 0.0
      },
      "interpolation": 2
     }
    ]
   },
   "location_y": {
    "Points": [
     {
      "co": {
       "X": 1.0,
       "Y": 0.0
      },
      "interpolation": 2
     }
    ]
   },
   "mixing": 0,
   "origin_x": {
    "Points": [
     {
      "co": {
       "X": 1.0,
       "Y": 0.5
      },
      "interpolation": 2
     }
    ]
   },
   "origin_y": {
    "Points": [
     {
      "co": {
       "X": 1.0,
       "Y": 0.5
      },
      "interpolation": 2
     }
    ]
   },
   "parentObjectId": "",
   "perspective_c1_x": {
    "Points": [
     {
      "co": {
       "X": 1.0,
       "Y": -1.0
      },
      "interpolation": 2
     }
    ]
   },
   "perspective_c1_y": {
    "Points": [
     {
      "co": {
       "X": 1.0,
       "Y": -1.0
      },
      "interpolation": 2
     }
    ]
   },
   "perspective_c2_x": {
    "Points": [
     {
      "co": {
       "X": 1.0,
       "Y": -1.0
      },
      "interpolation": 2
     }
    ]
   },
   "perspective_c2_y": {
    "Points": [
     {
      "co": {
       "X": 1.0,
       "Y": -1.0
      },
      "interpolation": 2
     }
    ]
   },
   "perspective_c3_x": {
    "Points": [
     {
      "co": {
       "X": 1.0,
       "Y": -1.0
      },
      "interpolation": 2
     }
    ]
   },
   "perspective_c3_y": {
    "Points": [
     {
      "co": {
       "X": 1.0,
       "Y": -1.0
      },
      "interpolation": 2
     }
    ]
   },
   "perspective_c4_x": {
    "Points": [
     {
      "co": {
       "X": 1.0,
       "Y": -1.0
      },
      "interpolation": 2
     }
    ]
   },
   "perspective_c4_y": {
    "Points": [
     {
      "co": {
       "X": 1.0,
       "Y": -1.0
      },
      "interpolation": 2
     }
    ]
   },
   "position": 7.6833333333333345,
   "reader": {
    "acodec": "",
    "audio_bit_rate": 0,
    "audio_stream_index": -1,
    "audio_timebase": {
     "den": 1,
     "num": 1
    },
    "channel_layout": 4,
    "channels": 0,
    "display_ratio": {
     "den": 1,
     "num": 1
    },
    "duration": 3600.0,
    "file_size": "492804",
    "fps": {
     "den": 1,
     "num": 30
    },
    "has_audio": false,
    "has_single_image": true,
    "has_video": true,
    "height": 351,
    "interlaced_frame": false,
    "metadata": {},
    "path": "./big freezer.jpg",
    "pixel_format": -1,
    "pixel_ratio": {
     "den": 1,
     "num": 1
    },
    "sample_rate": 0,
    "top_field_first": true,
    "type": "QtImageReader",
    "vcodec": "",
    "video_bit_rate": 0,
    "video_length": "108000",
    "video_stream_index": -1,
    "video_timebase": {
     "den": 30,
     "num": 1
    },
    "width": 351
   },
   "rotation": {
    "Points": [
     {
      "co": {
       "X": 1.0,
       "Y": 0.0
      },
      "interpolation": 2
     }
    ]
   },
   "scale": 1,
   "scale_x": {
    "Points": [
     {
      "co": {
       "X": 1.0,
       "Y": 1.0
      },
      "interpolation": 2
     }
    ]
   },
   "scale_y": {
    "Points": [
     {
      "co": {
       "X": 1.0,
       "Y": 1.0
      },
      "interpolation": 2
     }
    ]
   },
   "shear_x": {
    "Points": [
     {
      "co": {
       "X": 1.0,
       "Y": 0.0
      },
      "interpolation": 2
     }
    ]
   },
   "shear_y": {
    "Points": [
     {
      "co": {
       "X": 1.0,
       "Y": 0.0
      },
      "interpolation": 2
     }
    ]
   },
   "start": 7.650000000000001,
   "time": {
    "Points": [
     {
      "co": {
       "X": 1.0,
       "Y": 1.0
      },
      "interpolation": 2
     }
    ]
   },
   "volume": {
    "Points": [
     {
      "co": {
       "X": 1.0,
       "Y": 1.0
      },
      "interpolation": 2
     }
    ]
   },
   "wave_color": {
    "alpha": {
     "Points": [
      {
       "co": {
        "X": 1.0,
        "Y": 255.0
       },
       "handle_left": {
        "X": 0.5,
        "Y": 1.0
       },
       "handle_right": {
        "X": 0.5,
        "Y": 0.0
       },
       "handle_type": 0,
       "interpolation": 0
      }
     ]
    },
    "blue": {
     "Points": [
      {
       "co": {
        "X": 1.0,
        "Y": 255.0
       },
       "handle_left": {
        "X": 0.5,
        "Y": 1.0
       },
       "handle_right": {
        "X": 0.5,
        "Y": 0.0
       },
       "handle_type": 0,
       "interpolation": 0
      }
     ]
    },
    "green": {
     "Points": [
      {
       "co": {
        "X": 1.0,
        "Y": 123.0
       },
       "handle_left": {
        "X": 0.5,
        "Y": 1.0
       },
       "handle_right": {
        "X": 0.5,
        "Y": 0.0
       },
       "handle_type": 0,
       "interpolation": 0
      }
     ]
    },
    "red": {
     "Points": [
      {
       "co": {
        "X": 1.0,
        "Y": 0.0
       },
       "handle_left": {
        "X": 0.5,
        "Y": 1.0
       },
       "handle_right": {
        "X": 0.5,
        "Y": 0.0
       },
       "handle_type": 0,
       "interpolation": 0
      }
     ]
    }
   },
   "waveform": false,
   "file_id": "J2IPUCTF18",
   "title": "big freezer.jpg",
   "image": "Untitled Project_assets/thumbnail/J2IPUCTF18.png"
  },
  {
   "alpha": {
    "Points": [
     {
      "co": {
       "X": 1.0,
       "Y": 1.0
      },
      "interpolation": 2
     }
    ]
   },
   "anchor": 0,
   "channel_filter": {
    "Points": [
     {
      "co": {
       "X": 1.0,
       "Y": -1.0
      },
      "interpolation": 2
     }
    ]
   },
   "channel_mapping": {
    "Points": [
     {
      "co": {
       "X": 1.0,
       "Y": -1.0
      },
      "interpolation": 2
     }
    ]
   },
   "display": 0,
   "duration": 3600.0,
   "effects": [],
   "end": 14.05,
   "gravity": 4,
   "has_audio": {
    "Points": [
     {
      "co": {
       "X": 1.0,
       "Y": -1.0
      },
      "interpolation": 2
     }
    ]
   },
   "has_video": {
    "Points": [
     {
      "co": {
       "X": 1.0,
       "Y": -1.0
      },
      "interpolation": 2
     }
    ]
   },
   "id": "H5VPNBX8WJ",
   "layer": 5000000,
   "location_x": {
    "Points": [
     {
      "co": {
       "X": 1.0,
       "Y": 0.0
      },
      "interpolation": 2
     }
    ]
   },
   "location_y": {
    "Points": [
     {
      "co": {
       "X": 1.0,
       "Y": 0.0
      },
      "interpolation": 2
     }
    ]
   },
   "mixing": 0,
   "origin_x": {
    "Points": [
     {
      "co": {
       "X": 1.0,
       "Y": 0.5
      },
      "interpolation": 2
     }
    ]
   },
   "origin_y": {
    "Points": [
     {
      "co": {
       "X": 1.0,
       "Y": 0.5
      },
      "interpolation": 2
     }
    ]
   },
   "parentObjectId": "",
   "perspective_c1_x": {
    "Points": [
     {
      "co": {
       "X": 1.0,
       "Y": -1.0
      },
      "interpolation": 2
     }
    ]
   },
   "perspective_c1_y": {
    "Points": [
     {
      "co": {
       "X": 1.0,
       "Y": -1.0
      },
      "interpolation": 2
     }
    ]
   },
   "perspective_c2_x": {
    "Points": [
     {
      "co": {
       "X": 1.0,
       "Y": -1.0
      },
      "interpolation": 2
     }
    ]
   },
   "perspective_c2_y": {
    "Points": [
     {
      "co": {
       "X": 1.0,
       "Y": -1.0
      },
      "interpolation": 2
     }
    ]
   },
   "perspective_c3_x": {
    "Points": [
     {
      "co": {
       "X": 1.0,
       "Y": -1.0
      },
      "interpolation": 2
     }
    ]
   },
   "perspective_c3_y": {
    "Points": [
     {
      "co": {
       "X": 1.0,
       "Y": -1.0
      },
      "interpolation": 2
     }
    ]
   },
   "perspective_c4_x": {
    "Points": [
     {
      "co": {
       "X": 1.0,
       "Y": -1.0
      },
      "interpolation": 2
     }
    ]
   },
   "perspective_c4_y": {
    "Points": [
     {
      "co": {
       "X": 1.0,
       "Y": -1.0
      },
      "interpolation": 2
     }
    ]
   },
   "position": 12.033333333333333,
   "reader": {
    "acodec": "",
    "audio_bit_rate": 0,
    "audio_stream_index": -1,
    "audio_timebase": {
     "den": 1,
     "num": 1
    },
    "channel_layout": 4,
    "channels": 0,
    "display_ratio": {
     "den": 1,
     "num": 1
    },
    "duration": 3600.0,
    "file_size": "4194304",
    "fps": {
     "den": 1,
     "num": 30
    },
    "has_audio": false,
    "has_single_image": true,
    "has_video": true,
    "height": 1024,
    "interlaced_frame": false,
    "metadata": {},
    "path": "./sad researcher with big fridge.png",
    "pixel_format": -1,
    "pixel_ratio": {
     "den": 1,
     "num": 1
    },
    "sample_rate": 0,
    "top_field_first": true,
    "type": "QtImageReader",
    "vcodec": "",
    "video_bit_rate": 0,
    "video_length": "108000",
    "video_stream_index": -1,
    "video_timebase": {
     "den": 30,
     "num": 1
    },
    "width": 1024
   },
   "rotation": {
    "Points": [
     {
      "co": {
       "X": 1.0,
       "Y": 0.0
      },
      "interpolation": 2
     }
    ]
   },
   "scale": 1,
   "scale_x": {
    "Points": [
     {
      "co": {
       "X": 1.0,
       "Y": 1.0
      },
      "interpolation": 2
     }
    ]
   },
   "scale_y": {
    "Points": [
     {
      "co": {
       "X": 1.0,
       "Y": 1.0
      },
      "interpolation": 2
     }
    ]
   },
   "shear_x": {
    "Points": [
     {
      "co": {
       "X": 1.0,
       "Y": 0.0
      },
      "interpolation": 2
     }
    ]
   },
   "shear_y": {
    "Points": [
     {
      "co": {
       "X": 1.0,
       "Y": 0.0
      },
      "interpolation": 2
     }
    ]
   },
   "start": 0,
   "time": {
    "Points": [
     {
      "co": {
       "X": 1.0,
       "Y": 1.0
      },
      "interpolation": 2
     }
    ]
   },
   "volume": {
    "Points": [
     {
      "co": {
       "X": 1.0,
       "Y": 1.0
      },
      "interpolation": 2
     }
    ]
   },
   "wave_color": {
    "alpha": {
     "Points": [
      {
       "co": {
        "X": 1.0,
        "Y": 255.0
       },
       "handle_left": {
        "X": 0.5,
        "Y": 1.0
       },
       "handle_right": {
        "X": 0.5,
        "Y": 0.0
       },
       "handle_type": 0,
       "interpolation": 0
      }
     ]
    },
    "blue": {
     "Points": [
      {
       "co": {
        "X": 1.0,
        "Y": 255.0
       },
       "handle_left": {
        "X": 0.5,
        "Y": 1.0
       },
       "handle_right": {
        "X": 0.5,
        "Y": 0.0
       },
       "handle_type": 0,
       "interpolation": 0
      }
     ]
    },
    "green": {
     "Points": [
      {
       "co": {
        "X": 1.0,
        "Y": 123.0
       },
       "handle_left": {
        "X": 0.5,
        "Y": 1.0
       },
       "handle_right": {
        "X": 0.5,
        "Y": 0.0
       },
       "handle_type": 0,
       "interpolation": 0
      }
     ]
    },
    "red": {
     "Points": [
      {
       "co": {
        "X": 1.0,
        "Y": 0.0
       },
       "handle_left": {
        "X": 0.5,
        "Y": 1.0
       },
       "handle_right": {
        "X": 0.5,
        "Y": 0.0
       },
       "handle_type": 0,
       "interpolation": 0
      }
     ]
    }
   },
   "waveform": false,
   "file_id": "UW5KBQQAME",
   "title": "sad researcher with big fridge.png",
   "image": "Untitled Project_assets/thumbnail/UW5KBQQAME.png"
  },
  {
   "alpha": {
    "Points": [
     {
      "co": {
       "X": 1.0,
       "Y": 1.0
      },
      "interpolation": 2
     }
    ]
   },
   "anchor": 0,
   "channel_filter": {
    "Points": [
     {
      "co": {
       "X": 1.0,
       "Y": -1.0
      },
      "interpolation": 2
     }
    ]
   },
   "channel_mapping": {
    "Points": [
     {
      "co": {
       "X": 1.0,
       "Y": -1.0
      },
      "interpolation": 2
     }
    ]
   },
   "display": 0,
   "duration": 3600.0,
   "effects": [],
   "end": 10,
   "gravity": 4,
   "has_audio": {
    "Points": [
     {
      "co": {
       "X": 1.0,
       "Y": -1.0
      },
      "interpolation": 2
     }
    ]
   },
   "has_video": {
    "Points": [
     {
      "co": {
       "X": 1.0,
       "Y": -1.0
      },
      "interpolation": 2
     }
    ]
   },
   "id": "XVFFBJORQV",
   "layer": 5000000,
   "location_x": {
    "Points": [
     {
      "co": {
       "X": 1.0,
       "Y": 0.0
      },
      "interpolation": 2
     }
    ]
   },
   "location_y": {
    "Points": [
     {
      "co": {
       "X": 1.0,
       "Y": 0.0
      },
      "interpolation": 2
     }
    ]
   },
   "mixing": 0,
   "origin_x": {
    "Points": [
     {
      "co": {
       "X": 1.0,
       "Y": 0.5
      },
      "interpolation": 2
     }
    ]
   },
   "origin_y": {
    "Points": [
     {
      "co": {
       "X": 1.0,
       "Y": 0.5
      },
      "interpolation": 2
     }
    ]
   },
   "parentObjectId": "",
   "perspective_c1_x": {
    "Points": [
     {
      "co": {
       "X": 1.0,
       "Y": -1.0
      },
      "interpolation": 2
     }
    ]
   },
   "perspective_c1_y": {
    "Points": [
     {
      "co": {
       "X": 1.0,
       "Y": -1.0
      },
      "interpolation": 2
     }
    ]
   },
   "perspective_c2_x": {
    "Points": [
     {
      "co": {
       "X": 1.0,
       "Y": -1.0
      },
      "interpolation": 2
     }
    ]
   },
   "perspective_c2_y": {
    "Points": [
     {
      "co": {
       "X": 1.0,
       "Y": -1.0
      },
      "interpolation": 2
     }
    ]
   },
   "perspective_c3_x": {
    "Points": [
     {
      "co": {
       "X": 1.0,
       "Y": -1.0
      },
      "interpolation": 2
     }
    ]
   },
   "perspective_c3_y": {
    "Points": [
     {
      "co": {
       "X": 1.0,
       "Y": -1.0
      },
      "interpolation": 2
     }
    ]
   },
   "perspective_c4_x": {
    "Points": [
     {
      "co": {
       "X": 1.0,
       "Y": -1.0
      },
      "interpolation": 2
     }
    ]
   },
   "perspective_c4_y": {
    "Points": [
     {
      "co": {
       "X": 1.0,
       "Y": -1.0
      },
      "interpolation": 2
     }
    ]
   },
   "position": 26.133333333333333,
   "reader": {
    "acodec": "",
    "audio_bit_rate": 0,
    "audio_stream_index": -1,
    "audio_timebase": {
     "den": 1,
     "num": 1
    },
    "channel_layout": 4,
    "channels": 0,
    "display_ratio": {
     "den": 1,
     "num": 1
    },
    "duration": 3600.0,
    "file_size": "4194304",
    "fps": {
     "den": 1,
     "num": 30
    },
    "has_audio": false,
    "has_single_image": true,
    "has_video": true,
    "height": 1024,
    "interlaced_frame": false,
    "metadata": {},
    "path": "./researcher in a white gown squished by a giant freezer digital art.png",
    "pixel_format": -1,
    "pixel_ratio": {
     "den": 1,
     "num": 1
    },
    "sample_rate": 0,
    "top_field_first": true,
    "type": "QtImageReader",
    "vcodec": "",
    "video_bit_rate": 0,
    "video_length": "108000",
    "video_stream_index": -1,
    "video_timebase": {
     "den": 30,
     "num": 1
    },
    "width": 1024
   },
   "rotation": {
    "Points": [
     {
      "co": {
       "X": 1.0,
       "Y": 0.0
      },
      "interpolation": 2
     }
    ]
   },
   "scale": 1,
   "scale_x": {
    "Points": [
     {
      "co": {
       "X": 1.0,
       "Y": 1.0
      },
      "interpolation": 2
     }
    ]
   },
   "scale_y": {
    "Points": [
     {
      "co": {
       "X": 1.0,
       "Y": 1.0
      },
      "interpolation": 2
     }
    ]
   },
   "shear_x": {
    "Points": [
     {
      "co": {
       "X": 1.0,
       "Y": 0.0
      },
      "interpolation": 2
     }
    ]
   },
   "shear_y": {
    "Points": [
     {
      "co": {
       "X": 1.0,
       "Y": 0.0
      },
      "interpolation": 2
     }
    ]
   },
   "start": 0,
   "time": {
    "Points": [
     {
      "co": {
       "X": 1.0,
       "Y": 1.0
      },
      "interpolation": 2
     }
    ]
   },
   "volume": {
    "Points": [
     {
      "co": {
       "X": 1.0,
       "Y": 1.0
      },
      "interpolation": 2
     }
    ]
   },
   "wave_color": {
    "alpha": {
     "Points": [
      {
       "co": {
        "X": 1.0,
        "Y": 255.0
       },
       "handle_left": {
        "X": 0.5,
        "Y": 1.0
       },
       "handle_right": {
        "X": 0.5,
        "Y": 0.0
       },
       "handle_type": 0,
       "interpolation": 0
      }
     ]
    },
    "blue": {
     "Points": [
      {
       "co": {
        "X": 1.0,
        "Y": 255.0
       },
       "handle_left": {
        "X": 0.5,
        "Y": 1.0
       },
       "handle_right": {
        "X": 0.5,
        "Y": 0.0
       },
       "handle_type": 0,
       "interpolation": 0
      }
     ]
    },
    "green": {
     "Points": [
      {
       "co": {
        "X": 1.0,
        "Y": 123.0
       },
       "handle_left": {
        "X": 0.5,
        "Y": 1.0
       },
       "handle_right": {
        "X": 0.5,
        "Y": 0.0
       },
       "handle_type": 0,
       "interpolation": 0
      }
     ]
    },
    "red": {
     "Points": [
      {
       "co": {
        "X": 1.0,
        "Y": 0.0
       },
       "handle_left": {
        "X": 0.5,
        "Y": 1.0
       },
       "handle_right": {
        "X": 0.5,
        "Y": 0.0
       },
       "handle_type": 0,
       "interpolation": 0
      }
     ]
    }
   },
   "waveform": false,
   "file_id": "CXQIZNOKZO",
   "title": "researcher in a white gown squished by a giant freezer digital art.png",
   "image": "Untitled Project_assets/thumbnail/CXQIZNOKZO.png"
  },
  {
   "alpha": {
    "Points": [
     {
      "co": {
       "X": 1.0,
       "Y": 1.0
      },
      "interpolation": 2
     }
    ]
   },
   "anchor": 0,
   "channel_filter": {
    "Points": [
     {
      "co": {
       "X": 1.0,
       "Y": -1.0
      },
      "interpolation": 2
     }
    ]
   },
   "channel_mapping": {
    "Points": [
     {
      "co": {
       "X": 1.0,
       "Y": -1.0
      },
      "interpolation": 2
     }
    ]
   },
   "display": 0,
   "duration": 3600.0,
   "effects": [],
   "end": 19.300000000000004,
   "gravity": 4,
   "has_audio": {
    "Points": [
     {
      "co": {
       "X": 1.0,
       "Y": -1.0
      },
      "interpolation": 2
     }
    ]
   },
   "has_video": {
    "Points": [
     {
      "co": {
       "X": 1.0,
       "Y": -1.0
      },
      "interpolation": 2
     }
    ]
   },
   "id": "AZMYI22QYC",
   "layer": 5000000,
   "location_x": {
    "Points": [
     {
      "co": {
       "X": 1.0,
       "Y": 0.0
      },
      "interpolation": 2
     }
    ]
   },
   "location_y": {
    "Points": [
     {
      "co": {
       "X": 1.0,
       "Y": 0.0
      },
      "interpolation": 2
     }
    ]
   },
   "mixing": 0,
   "origin_x": {
    "Points": [
     {
      "co": {
       "X": 1.0,
       "Y": 0.5
      },
      "interpolation": 2
     }
    ]
   },
   "origin_y": {
    "Points": [
     {
      "co": {
       "X": 1.0,
       "Y": 0.5
      },
      "interpolation": 2
     }
    ]
   },
   "parentObjectId": "",
   "perspective_c1_x": {
    "Points": [
     {
      "co": {
       "X": 1.0,
       "Y": -1.0
      },
      "interpolation": 2
     }
    ]
   },
   "perspective_c1_y": {
    "Points": [
     {
      "co": {
       "X": 1.0,
       "Y": -1.0
      },
      "interpolation": 2
     }
    ]
   },
   "perspective_c2_x": {
    "Points": [
     {
      "co": {
       "X": 1.0,
       "Y": -1.0
      },
      "interpolation": 2
     }
    ]
   },
   "perspective_c2_y": {
    "Points": [
     {
      "co": {
       "X": 1.0,
       "Y": -1.0
      },
      "interpolation": 2
     }
    ]
   },
   "perspective_c3_x": {
    "Points": [
     {
      "co": {
       "X": 1.0,
       "Y": -1.0
      },
      "interpolation": 2
     }
    ]
   },
   "perspective_c3_y": {
    "Points": [
     {
      "co": {
       "X": 1.0,
       "Y": -1.0
      },
      "interpolation": 2
     }
    ]
   },
   "perspective_c4_x": {
    "Points": [
     {
      "co": {
       "X": 1.0,
       "Y": -1.0
      },
      "interpolation": 2
     }
    ]
   },
   "perspective_c4_y": {
    "Points": [
     {
      "co": {
       "X": 1.0,
       "Y": -1.0
      },
      "interpolation": 2
     }
    ]
   },
   "position": 36.13333333333333,
   "reader": {
    "acodec": "",
    "audio_bit_rate": 0,
    "audio_stream_index": -1,
    "audio_timebase": {
     "den": 1,
     "num": 1
    },
    "channel_layout": 4,
    "channels": 0,
    "display_ratio": {
     "den": 1,
     "num": 1
    },
    "duration": 3600.0,
    "file_size": "4194304",
    "fps": {
     "den": 1,
     "num": 30
    },
    "has_audio": false,
    "has_single_image": true,
    "has_video": true,
    "height": 1024,
    "interlaced_frame": false,
    "metadata": {},
    "path": "./researcher in a white gown crashed by a giant freezer digital art.png",
    "pixel_format": -1,
    "pixel_ratio": {
     "den": 1,
     "num": 1
    },
    "sample_rate": 0,
    "top_field_first": true,
    "type": "QtImageReader",
    "vcodec": "",
    "video_bit_rate": 0,
    "video_length": "108000",
    "video_stream_index": -1,
    "video_timebase": {
     "den": 30,
     "num": 1
    },
    "width": 1024
   },
   "rotation": {
    "Points": [
     {
      "co": {
       "X": 1.0,
       "Y": 0.0
      },
      "interpolation": 2
     }
    ]
   },
   "scale": 1,
   "scale_x": {
    "Points": [
     {
      "co": {
       "X": 1.0,
       "Y": 1.0
      },
      "interpolation": 2
     }
    ]
   },
   "scale_y": {
    "Points": [
     {
      "co": {
       "X": 1.0,
       "Y": 1.0
      },
      "interpolation": 2
     }
    ]
   },
   "shear_x": {
    "Points": [
     {
      "co": {
       "X": 1.0,
       "Y": 0.0
      },
      "interpolation": 2
     }
    ]
   },
   "shear_y": {
    "Points": [
     {
      "co": {
       "X": 1.0,
       "Y": 0.0
      },
      "interpolation": 2
     }
    ]
   },
   "start": 0,
   "time": {
    "Points": [
     {
      "co": {
       "X": 1.0,
       "Y": 1.0
      },
      "interpolation": 2
     }
    ]
   },
   "volume": {
    "Points": [
     {
      "co": {
       "X": 1.0,
       "Y": 1.0
      },
      "interpolation": 2
     }
    ]
   },
   "wave_color": {
    "alpha": {
     "Points": [
      {
       "co": {
        "X": 1.0,
        "Y": 255.0
       },
       "handle_left": {
        "X": 0.5,
        "Y": 1.0
       },
       "handle_right": {
        "X": 0.5,
        "Y": 0.0
       },
       "handle_type": 0,
       "interpolation": 0
      }
     ]
    },
    "blue": {
     "Points": [
      {
       "co": {
        "X": 1.0,
        "Y": 255.0
       },
       "handle_left": {
        "X": 0.5,
        "Y": 1.0
       },
       "handle_right": {
        "X": 0.5,
        "Y": 0.0
       },
       "handle_type": 0,
       "interpolation": 0
      }
     ]
    },
    "green": {
     "Points": [
      {
       "co": {
        "X": 1.0,
        "Y": 123.0
       },
       "handle_left": {
        "X": 0.5,
        "Y": 1.0
       },
       "handle_right": {
        "X": 0.5,
        "Y": 0.0
       },
       "handle_type": 0,
       "interpolation": 0
      }
     ]
    },
    "red": {
     "Points": [
      {
       "co": {
        "X": 1.0,
        "Y": 0.0
       },
       "handle_left": {
        "X": 0.5,
        "Y": 1.0
       },
       "handle_right": {
        "X": 0.5,
        "Y": 0.0
       },
       "handle_type": 0,
       "interpolation": 0
      }
     ]
    }
   },
   "waveform": false,
   "file_id": "483I423UID",
   "title": "researcher in a white gown crashed by a giant freezer digital art.png",
   "image": "Untitled Project_assets/thumbnail/483I423UID.png"
  },
  {
   "alpha": {
    "Points": [
     {
      "co": {
       "X": 1.0,
       "Y": 1.0
      },
      "interpolation": 2
     }
    ]
   },
   "anchor": 0,
   "channel_filter": {
    "Points": [
     {
      "co": {
       "X": 1.0,
       "Y": -1.0
      },
      "interpolation": 2
     }
    ]
   },
   "channel_mapping": {
    "Points": [
     {
      "co": {
       "X": 1.0,
       "Y": -1.0
      },
      "interpolation": 2
     }
    ]
   },
   "display": 0,
   "duration": 3600.0,
   "effects": [],
   "end": 24.25,
   "gravity": 4,
   "has_audio": {
    "Points": [
     {
      "co": {
       "X": 1.0,
       "Y": -1.0
      },
      "interpolation": 2
     }
    ]
   },
   "has_video": {
    "Points": [
     {
      "co": {
       "X": 1.0,
       "Y": -1.0
      },
      "interpolation": 2
     }
    ]
   },
   "id": "J8R9ZS5JDU",
   "layer": 5000000,
   "location_x": {
    "Points": [
     {
      "co": {
       "X": 1.0,
       "Y": 0.0
      },
      "interpolation": 2
     }
    ]
   },
   "location_y": {
    "Points": [
     {
      "co": {
       "X": 1.0,
       "Y": 0.0
      },
      "interpolation": 2
     }
    ]
   },
   "mixing": 0,
   "origin_x": {
    "Points": [
     {
      "co": {
       "X": 1.0,
       "Y": 0.5
      },
      "interpolation": 2
     }
    ]
   },
   "origin_y": {
    "Points": [
     {
      "co": {
       "X": 1.0,
       "Y": 0.5
      },
      "interpolation": 2
     }
    ]
   },
   "parentObjectId": "",
   "perspective_c1_x": {
    "Points": [
     {
      "co": {
       "X": 1.0,
       "Y": -1.0
      },
      "interpolation": 2
     }
    ]
   },
   "perspective_c1_y": {
    "Points": [
     {
      "co": {
       "X": 1.0,
       "Y": -1.0
      },
      "interpolation": 2
     }
    ]
   },
   "perspective_c2_x": {
    "Points": [
     {
      "co": {
       "X": 1.0,
       "Y": -1.0
      },
      "interpolation": 2
     }
    ]
   },
   "perspective_c2_y": {
    "Points": [
     {
      "co": {
       "X": 1.0,
       "Y": -1.0
      },
      "interpolation": 2
     }
    ]
   },
   "perspective_c3_x": {
    "Points": [
     {
      "co": {
       "X": 1.0,
       "Y": -1.0
      },
      "interpolation": 2
     }
    ]
   },
   "perspective_c3_y": {
    "Points": [
     {
      "co": {
       "X": 1.0,
       "Y": -1.0
      },
      "interpolation": 2
     }
    ]
   },
   "perspective_c4_x": {
    "Points": [
     {
      "co": {
       "X": 1.0,
       "Y": -1.0
      },
      "interpolation": 2
     }
    ]
   },
   "perspective_c4_y": {
    "Points": [
     {
      "co": {
       "X": 1.0,
       "Y": -1.0
      },
      "interpolation": 2
     }
    ]
   },
   "position": 55.43333333333333,
   "reader": {
    "acodec": "",
    "audio_bit_rate": 0,
    "audio_stream_index": -1,
    "audio_timebase": {
     "den": 1,
     "num": 1
    },
    "channel_layout": 4,
    "channels": 0,
    "display_ratio": {
     "den": 44,
     "num": 53
    },
    "duration": 3600.0,
    "file_size": "457072",
    "fps": {
     "den": 1,
     "num": 30
    },
    "has_audio": false,
    "has_single_image": true,
    "has_video": true,
    "height": 308,
    "interlaced_frame": false,
    "metadata": {},
    "path": "./Untitled.png",
    "pixel_format": -1,
    "pixel_ratio": {
     "den": 1,
     "num": 1
    },
    "sample_rate": 0,
    "top_field_first": true,
    "type": "QtImageReader",
    "vcodec": "",
    "video_bit_rate": 0,
    "video_length": "108000",
    "video_stream_index": -1,
    "video_timebase": {
     "den": 30,
     "num": 1
    },
    "width": 371
   },
   "rotation": {
    "Points": [
     {
      "co": {
       "X": 1.0,
       "Y": 0.0
      },
      "interpolation": 2
     }
    ]
   },
   "scale": 1,
   "scale_x": {
    "Points": [
     {
      "co": {
       "X": 1.0,
       "Y": 1.0
      },
      "interpolation": 2
     }
    ]
   },
   "scale_y": {
    "Points": [
     {
      "co": {
       "X": 1.0,
       "Y": 1.0
      },
      "interpolation": 2
     }
    ]
   },
   "shear_x": {
    "Points": [
     {
      "co": {
       "X": 1.0,
       "Y": 0.0
      },
      "interpolation": 2
     }
    ]
   },
   "shear_y": {
    "Points": [
     {
      "co": {
       "X": 1.0,
       "Y": 0.0
      },
      "interpolation": 2
     }
    ]
   },
   "start": 0.15000000000000002,
   "time": {
    "Points": [
     {
      "co": {
       "X": 1.0,
       "Y": 1.0
      },
      "interpolation": 2
     }
    ]
   },
   "volume": {
    "Points": [
     {
      "co": {
       "X": 1.0,
       "Y": 1.0
      },
      "interpolation": 2
     }
    ]
   },
   "wave_color": {
    "alpha": {
     "Points": [
      {
       "co": {
        "X": 1.0,
        "Y": 255.0
       },
       "handle_left": {
        "X": 0.5,
        "Y": 1.0
       },
       "handle_right": {
        "X": 0.5,
        "Y": 0.0
       },
       "handle_type": 0,
       "interpolation": 0
      }
     ]
    },
    "blue": {
     "Points": [
      {
       "co": {
        "X": 1.0,
        "Y": 255.0
       },
       "handle_left": {
        "X": 0.5,
        "Y": 1.0
       },
       "handle_right": {
        "X": 0.5,
        "Y": 0.0
       },
       "handle_type": 0,
       "interpolation": 0
      }
     ]
    },
    "green": {
     "Points": [
      {
       "co": {
        "X": 1.0,
        "Y": 123.0
       },
       "handle_left": {
        "X": 0.5,
        "Y": 1.0
       },
       "handle_right": {
        "X": 0.5,
        "Y": 0.0
       },
       "handle_type": 0,
       "interpolation": 0
      }
     ]
    },
    "red": {
     "Points": [
      {
       "co": {
        "X": 1.0,
        "Y": 0.0
       },
       "handle_left": {
        "X": 0.5,
        "Y": 1.0
       },
       "handle_right": {
        "X": 0.5,
        "Y": 0.0
       },
       "handle_type": 0,
       "interpolation": 0
      }
     ]
    }
   },
   "waveform": false,
   "file_id": "0EE7FV71L9",
   "title": "Untitled.png",
   "image": "Untitled Project_assets/thumbnail/0EE7FV71L9.png"
  },
  {
   "alpha": {
    "Points": [
     {
      "co": {
       "X": 1.0,
       "Y": 1.0
      },
      "interpolation": 2
     }
    ]
   },
   "anchor": 0,
   "channel_filter": {
    "Points": [
     {
      "co": {
       "X": 1.0,
       "Y": -1.0
      },
      "interpolation": 2
     }
    ]
   },
   "channel_mapping": {
    "Points": [
     {
      "co": {
       "X": 1.0,
       "Y": -1.0
      },
      "interpolation": 2
     }
    ]
   },
   "display": 0,
   "duration": 3600.0,
   "effects": [],
   "end": 17.35,
   "gravity": 4,
   "has_audio": {
    "Points": [
     {
      "co": {
       "X": 1.0,
       "Y": -1.0
      },
      "interpolation": 2
     }
    ]
   },
   "has_video": {
    "Points": [
     {
      "co": {
       "X": 1.0,
       "Y": -1.0
      },
      "interpolation": 2
     }
    ]
   },
   "id": "XADLH0HXHN",
   "layer": 5000000,
   "location_x": {
    "Points": [
     {
      "co": {
       "X": 1.0,
       "Y": 0.0
      },
      "interpolation": 2
     }
    ]
   },
   "location_y": {
    "Points": [
     {
      "co": {
       "X": 1.0,
       "Y": 0.0
      },
      "interpolation": 2
     }
    ]
   },
   "mixing": 0,
   "origin_x": {
    "Points": [
     {
      "co": {
       "X": 1.0,
       "Y": 0.5
      },
      "interpolation": 2
     }
    ]
   },
   "origin_y": {
    "Points": [
     {
      "co": {
       "X": 1.0,
       "Y": 0.5
      },
      "interpolation": 2
     }
    ]
   },
   "parentObjectId": "",
   "perspective_c1_x": {
    "Points": [
     {
      "co": {
       "X": 1.0,
       "Y": -1.0
      },
      "interpolation": 2
     }
    ]
   },
   "perspective_c1_y": {
    "Points": [
     {
      "co": {
       "X": 1.0,
       "Y": -1.0
      },
      "interpolation": 2
     }
    ]
   },
   "perspective_c2_x": {
    "Points": [
     {
      "co": {
       "X": 1.0,
       "Y": -1.0
      },
      "interpolation": 2
     }
    ]
   },
   "perspective_c2_y": {
    "Points": [
     {
      "co": {
       "X": 1.0,
       "Y": -1.0
      },
      "interpolation": 2
     }
    ]
   },
   "perspective_c3_x": {
    "Points": [
     {
      "co": {
       "X": 1.0,
       "Y": -1.0
      },
      "interpolation": 2
     }
    ]
   },
   "perspective_c3_y": {
    "Points": [
     {
      "co": {
       "X": 1.0,
       "Y": -1.0
      },
      "interpolation": 2
     }
    ]
   },
   "perspective_c4_x": {
    "Points": [
     {
      "co": {
       "X": 1.0,
       "Y": -1.0
      },
      "interpolation": 2
     }
    ]
   },
   "perspective_c4_y": {
    "Points": [
     {
      "co": {
       "X": 1.0,
       "Y": -1.0
      },
      "interpolation": 2
     }
    ]
   },
   "position": 79.53333333333333,
   "reader": {
    "acodec": "",
    "audio_bit_rate": 0,
    "audio_stream_index": -1,
    "audio_timebase": {
     "den": 1,
     "num": 1
    },
    "channel_layout": 4,
    "channels": 0,
    "display_ratio": {
     "den": 1,
     "num": 1
    },
    "duration": 3600.0,
    "file_size": "4194304",
    "fps": {
     "den": 1,
     "num": 30
    },
    "has_audio": false,
    "has_single_image": true,
    "has_video": true,
    "height": 1024,
    "interlaced_frame": false,
    "metadata": {},
    "path": "./happy face researcher with white gown holding a metallic  cylinder 10 cm by 10 cmcooler and smiling.png",
    "pixel_format": -1,
    "pixel_ratio": {
     "den": 1,
     "num": 1
    },
    "sample_rate": 0,
    "top_field_first": true,
    "type": "QtImageReader",
    "vcodec": "",
    "video_bit_rate": 0,
    "video_length": "108000",
    "video_stream_index": -1,
    "video_timebase": {
     "den": 30,
     "num": 1
    },
    "width": 1024
   },
   "rotation": {
    "Points": [
     {
      "co": {
       "X": 1.0,
       "Y": 0.0
      },
      "interpolation": 2
     }
    ]
   },
   "scale": 1,
   "scale_x": {
    "Points": [
     {
      "co": {
       "X": 1.0,
       "Y": 1.0
      },
      "interpolation": 2
     }
    ]
   },
   "scale_y": {
    "Points": [
     {
      "co": {
       "X": 1.0,
       "Y": 1.0
      },
      "interpolation": 2
     }
    ]
   },
   "shear_x": {
    "Points": [
     {
      "co": {
       "X": 1.0,
       "Y": 0.0
      },
      "interpolation": 2
     }
    ]
   },
   "shear_y": {
    "Points": [
     {
      "co": {
       "X": 1.0,
       "Y": 0.0
      },
      "interpolation": 2
     }
    ]
   },
   "start": 0.15000000000000002,
   "time": {
    "Points": [
     {
      "co": {
       "X": 1.0,
       "Y": 1.0
      },
      "interpolation": 2
     }
    ]
   },
   "volume": {
    "Points": [
     {
      "co": {
       "X": 1.0,
       "Y": 1.0
      },
      "interpolation": 2
     }
    ]
   },
   "wave_color": {
    "alpha": {
     "Points": [
      {
       "co": {
        "X": 1.0,
        "Y": 255.0
       },
       "handle_left": {
        "X": 0.5,
        "Y": 1.0
       },
       "handle_right": {
        "X": 0.5,
        "Y": 0.0
       },
       "handle_type": 0,
       "interpolation": 0
      }
     ]
    },
    "blue": {
     "Points": [
      {
       "co": {
        "X": 1.0,
        "Y": 255.0
       },
       "handle_left": {
        "X": 0.5,
        "Y": 1.0
       },
       "handle_right": {
        "X": 0.5,
        "Y": 0.0
       },
       "handle_type": 0,
       "interpolation": 0
      }
     ]
    },
    "green": {
     "Points": [
      {
       "co": {
        "X": 1.0,
        "Y": 123.0
       },
       "handle_left": {
        "X": 0.5,
        "Y": 1.0
       },
       "handle_right": {
        "X": 0.5,
        "Y": 0.0
       },
       "handle_type": 0,
       "interpolation": 0
      }
     ]
    },
    "red": {
     "Points": [
      {
       "co": {
        "X": 1.0,
        "Y": 0.0
       },
       "handle_left": {
        "X": 0.5,
        "Y": 1.0
       },
       "handle_right": {
        "X": 0.5,
        "Y": 0.0
       },
       "handle_type": 0,
       "interpolation": 0
      }
     ]
    }
   },
   "waveform": false,
   "file_id": "7XYTPOQW7E",
   "title": "happy face researcher with white gown holding a metallic  cylinder 10 cm by 10 cmcooler and smiling.png",
   "image": "Untitled Project_assets/thumbnail/7XYTPOQW7E.png"
  },
  {
   "alpha": {
    "Points": [
     {
      "co": {
       "X": 1.0,
       "Y": 1.0
      },
      "interpolation": 2
     }
    ]
   },
   "anchor": 0,
   "channel_filter": {
    "Points": [
     {
      "co": {
       "X": 1.0,
       "Y": -1.0
      },
      "interpolation": 2
     }
    ]
   },
   "channel_mapping": {
    "Points": [
     {
      "co": {
       "X": 1.0,
       "Y": -1.0
      },
      "interpolation": 2
     }
    ]
   },
   "display": 0,
   "duration": 3600.0,
   "effects": [],
   "end": 16.300000000000004,
   "gravity": 4,
   "has_audio": {
    "Points": [
     {
      "co": {
       "X": 1.0,
       "Y": -1.0
      },
      "interpolation": 2
     }
    ]
   },
   "has_video": {
    "Points": [
     {
      "co": {
       "X": 1.0,
       "Y": -1.0
      },
      "interpolation": 2
     }
    ]
   },
   "id": "URVKDN5RGM",
   "layer": 5000000,
   "location_x": {
    "Points": [
     {
      "co": {
       "X": 1.0,
       "Y": 0.0
      },
      "interpolation": 2
     }
    ]
   },
   "location_y": {
    "Points": [
     {
      "co": {
       "X": 1.0,
       "Y": 0.0
      },
      "interpolation": 2
     }
    ]
   },
   "mixing": 0,
   "origin_x": {
    "Points": [
     {
      "co": {
       "X": 1.0,
       "Y": 0.5
      },
      "interpolation": 2
     }
    ]
   },
   "origin_y": {
    "Points": [
     {
      "co": {
       "X": 1.0,
       "Y": 0.5
      },
      "interpolation": 2
     }
    ]
   },
   "parentObjectId": "",
   "perspective_c1_x": {
    "Points": [
     {
      "co": {
       "X": 1.0,
       "Y": -1.0
      },
      "interpolation": 2
     }
    ]
   },
   "perspective_c1_y": {
    "Points": [
     {
      "co": {
       "X": 1.0,
       "Y": -1.0
      },
      "interpolation": 2
     }
    ]
   },
   "perspective_c2_x": {
    "Points": [
     {
      "co": {
       "X": 1.0,
       "Y": -1.0
      },
      "interpolation": 2
     }
    ]
   },
   "perspective_c2_y": {
    "Points": [
     {
      "co": {
       "X": 1.0,
       "Y": -1.0
      },
      "interpolation": 2
     }
    ]
   },
   "perspective_c3_x": {
    "Points": [
     {
      "co": {
       "X": 1.0,
       "Y": -1.0
      },
      "interpolation": 2
     }
    ]
   },
   "perspective_c3_y": {
    "Points": [
     {
      "co": {
       "X": 1.0,
       "Y": -1.0
      },
      "interpolation": 2
     }
    ]
   },
   "perspective_c4_x": {
    "Points": [
     {
      "co": {
       "X": 1.0,
       "Y": -1.0
      },
      "interpolation": 2
     }
    ]
   },
   "perspective_c4_y": {
    "Points": [
     {
      "co": {
       "X": 1.0,
       "Y": -1.0
      },
      "interpolation": 2
     }
    ]
   },
   "position": 96.73333333333333,
   "reader": {
    "acodec": "",
    "audio_bit_rate": 0,
    "audio_stream_index": -1,
    "audio_timebase": {
     "den": 1,
     "num": 1
    },
    "channel_layout": 4,
    "channels": 0,
    "display_ratio": {
     "den": 1,
     "num": 1
    },
    "duration": 3600.0,
    "file_size": "4194304",
    "fps": {
     "den": 1,
     "num": 30
    },
    "has_audio": false,
    "has_single_image": true,
    "has_video": true,
    "height": 1024,
    "interlaced_frame": false,
    "metadata": {},
    "path": "./happy face researcher with white gown holding a metallic looking cilinder the sizeof a soup container like object and smiling.png",
    "pixel_format": -1,
    "pixel_ratio": {
     "den": 1,
     "num": 1
    },
    "sample_rate": 0,
    "top_field_first": true,
    "type": "QtImageReader",
    "vcodec": "",
    "video_bit_rate": 0,
    "video_length": "108000",
    "video_stream_index": -1,
    "video_timebase": {
     "den": 30,
     "num": 1
    },
    "width": 1024
   },
   "rotation": {
    "Points": [
     {
      "co": {
       "X": 1.0,
       "Y": 0.0
      },
      "interpolation": 2
     }
    ]
   },
   "scale": 1,
   "scale_x": {
    "Points": [
     {
      "co": {
       "X": 1.0,
       "Y": 1.0
      },
      "interpolation": 2
     }
    ]
   },
   "scale_y": {
    "Points": [
     {
      "co": {
       "X": 1.0,
       "Y": 1.0
      },
      "interpolation": 2
     }
    ]
   },
   "shear_x": {
    "Points": [
     {
      "co": {
       "X": 1.0,
       "Y": 0.0
      },
      "interpolation": 2
     }
    ]
   },
   "shear_y": {
    "Points": [
     {
      "co": {
       "X": 1.0,
       "Y": 0.0
      },
      "interpolation": 2
     }
    ]
   },
   "start": 0,
   "time": {
    "Points": [
     {
      "co": {
       "X": 1.0,
       "Y": 1.0
      },
      "interpolation": 2
     }
    ]
   },
   "volume": {
    "Points": [
     {
      "co": {
       "X": 1.0,
       "Y": 1.0
      },
      "interpolation": 2
     }
    ]
   },
   "wave_color": {
    "alpha": {
     "Points": [
      {
       "co": {
        "X": 1.0,
        "Y": 255.0
       },
       "handle_left": {
        "X": 0.5,
        "Y": 1.0
       },
       "handle_right": {
        "X": 0.5,
        "Y": 0.0
       },
       "handle_type": 0,
       "interpolation": 0
      }
     ]
    },
    "blue": {
     "Points": [
      {
       "co": {
        "X": 1.0,
        "Y": 255.0
       },
       "handle_left": {
        "X": 0.5,
        "Y": 1.0
       },
       "handle_right": {
        "X": 0.5,
        "Y": 0.0
       },
       "handle_type": 0,
       "interpolation": 0
      }
     ]
    },
    "green": {
     "Points": [
      {
       "co": {
        "X": 1.0,
        "Y": 123.0
       },
       "handle_left": {
        "X": 0.5,
        "Y": 1.0
       },
       "handle_right": {
        "X": 0.5,
        "Y": 0.0
       },
       "handle_type": 0,
       "interpolation": 0
      }
     ]
    },
    "red": {
     "Points": [
      {
       "co": {
        "X": 1.0,
        "Y": 0.0
       },
       "handle_left": {
        "X": 0.5,
        "Y": 1.0
       },
       "handle_right": {
        "X": 0.5,
        "Y": 0.0
       },
       "handle_type": 0,
       "interpolation": 0
      }
     ]
    }
   },
   "waveform": false,
   "file_id": "240F2BKCXL",
   "title": "happy face researcher with white gown holding a metallic looking cilinder the sizeof a soup container like object and smiling.png",
   "image": "Untitled Project_assets/thumbnail/240F2BKCXL.png"
  },
  {
   "alpha": {
    "Points": [
     {
      "co": {
       "X": 1.0,
       "Y": 1.0
      },
      "interpolation": 2
     }
    ]
   },
   "anchor": 0,
   "channel_filter": {
    "Points": [
     {
      "co": {
       "X": 1.0,
       "Y": -1.0
      },
      "interpolation": 2
     }
    ]
   },
   "channel_mapping": {
    "Points": [
     {
      "co": {
       "X": 1.0,
       "Y": -1.0
      },
      "interpolation": 2
     }
    ]
   },
   "display": 0,
   "duration": 3600.0,
   "effects": [],
   "end": 11.65,
   "gravity": 4,
   "has_audio": {
    "Points": [
     {
      "co": {
       "X": 1.0,
       "Y": -1.0
      },
      "interpolation": 2
     }
    ]
   },
   "has_video": {
    "Points": [
     {
      "co": {
       "X": 1.0,
       "Y": -1.0
      },
      "interpolation": 2
     }
    ]
   },
   "id": "DR38PKPFHF",
   "layer": 5000000,
   "location_x": {
    "Points": [
     {
      "co": {
       "X": 1.0,
       "Y": 0.0
      },
      "interpolation": 2
     }
    ]
   },
   "location_y": {
    "Points": [
     {
      "co": {
       "X": 1.0,
       "Y": 0.0
      },
      "interpolation": 2
     }
    ]
   },
   "mixing": 0,
   "origin_x": {
    "Points": [
     {
      "co": {
       "X": 1.0,
       "Y": 0.5
      },
      "interpolation": 2
     }
    ]
   },
   "origin_y": {
    "Points": [
     {
      "co": {
       "X": 1.0,
       "Y": 0.5
      },
      "interpolation": 2
     }
    ]
   },
   "parentObjectId": "",
   "perspective_c1_x": {
    "Points": [
     {
      "co": {
       "X": 1.0,
       "Y": -1.0
      },
      "interpolation": 2
     }
    ]
   },
   "perspective_c1_y": {
    "Points": [
     {
      "co": {
       "X": 1.0,
       "Y": -1.0
      },
      "interpolation": 2
     }
    ]
   },
   "perspective_c2_x": {
    "Points": [
     {
      "co": {
       "X": 1.0,
       "Y": -1.0
      },
      "interpolation": 2
     }
    ]
   },
   "perspective_c2_y": {
    "Points": [
     {
      "co": {
       "X": 1.0,
       "Y": -1.0
      },
      "interpolation": 2
     }
    ]
   },
   "perspective_c3_x": {
    "Points": [
     {
      "co": {
       "X": 1.0,
       "Y": -1.0
      },
      "interpolation": 2
     }
    ]
   },
   "perspective_c3_y": {
    "Points": [
     {
      "co": {
       "X": 1.0,
       "Y": -1.0
      },
      "interpolation": 2
     }
    ]
   },
   "perspective_c4_x": {
    "Points": [
     {
      "co": {
       "X": 1.0,
       "Y": -1.0
      },
      "interpolation": 2
     }
    ]
   },
   "perspective_c4_y": {
    "Points": [
     {
      "co": {
       "X": 1.0,
       "Y": -1.0
      },
      "interpolation": 2
     }
    ]
   },
   "position": 113.03333333333333,
   "reader": {
    "acodec": "",
    "audio_bit_rate": 0,
    "audio_stream_index": -1,
    "audio_timebase": {
     "den": 1,
     "num": 1
    },
    "channel_layout": 4,
    "channels": 0,
    "display_ratio": {
     "den": 1,
     "num": 1
    },
    "duration": 3600.0,
    "file_size": "4194304",
    "fps": {
     "den": 1,
     "num": 30
    },
    "has_audio": false,
    "has_single_image": true,
    "has_video": true,
    "height": 1024,
    "interlaced_frame": false,
    "metadata": {},
    "path": "./cartoon happy chemical in a cylindrical container freezing but happy by impressionist artist.png",
    "pixel_format": -1,
    "pixel_ratio": {
     "den": 1,
     "num": 1
    },
    "sample_rate": 0,
    "top_field_first": true,
    "type": "QtImageReader",
    "vcodec": "",
    "video_bit_rate": 0,
    "video_length": "108000",
    "video_stream_index": -1,
    "video_timebase": {
     "den": 30,
     "num": 1
    },
    "width": 1024
   },
   "rotation": {
    "Points": [
     {
      "co": {
       "X": 1.0,
       "Y": 0.0
      },
      "interpolation": 2
     }
    ]
   },
   "scale": 1,
   "scale_x": {
    "Points": [
     {
      "co": {
       "X": 1.0,
       "Y": 1.0
      },
      "interpolation": 2
     }
    ]
   },
   "scale_y": {
    "Points": [
     {
      "co": {
       "X": 1.0,
       "Y": 1.0
      },
      "interpolation": 2
     }
    ]
   },
   "shear_x": {
    "Points": [
     {
      "co": {
       "X": 1.0,
       "Y": 0.0
      },
      "interpolation": 2
     }
    ]
   },
   "shear_y": {
    "Points": [
     {
      "co": {
       "X": 1.0,
       "Y": 0.0
      },
      "interpolation": 2
     }
    ]
   },
   "start": 0.15000000000000002,
   "time": {
    "Points": [
     {
      "co": {
       "X": 1.0,
       "Y": 1.0
      },
      "interpolation": 2
     }
    ]
   },
   "volume": {
    "Points": [
     {
      "co": {
       "X": 1.0,
       "Y": 1.0
      },
      "interpolation": 2
     }
    ]
   },
   "wave_color": {
    "alpha": {
     "Points": [
      {
       "co": {
        "X": 1.0,
        "Y": 255.0
       },
       "handle_left": {
        "X": 0.5,
        "Y": 1.0
       },
       "handle_right": {
        "X": 0.5,
        "Y": 0.0
       },
       "handle_type": 0,
       "interpolation": 0
      }
     ]
    },
    "blue": {
     "Points": [
      {
       "co": {
        "X": 1.0,
        "Y": 255.0
       },
       "handle_left": {
        "X": 0.5,
        "Y": 1.0
       },
       "handle_right": {
        "X": 0.5,
        "Y": 0.0
       },
       "handle_type": 0,
       "interpolation": 0
      }
     ]
    },
    "green": {
     "Points": [
      {
       "co": {
        "X": 1.0,
        "Y": 123.0
       },
       "handle_left": {
        "X": 0.5,
        "Y": 1.0
       },
       "handle_right": {
        "X": 0.5,
        "Y": 0.0
       },
       "handle_type": 0,
       "interpolation": 0
      }
     ]
    },
    "red": {
     "Points": [
      {
       "co": {
        "X": 1.0,
        "Y": 0.0
       },
       "handle_left": {
        "X": 0.5,
        "Y": 1.0
       },
       "handle_right": {
        "X": 0.5,
        "Y": 0.0
       },
       "handle_type": 0,
       "interpolation": 0
      }
     ]
    }
   },
   "waveform": false,
   "file_id": "BQJ4EAZJGN",
   "title": "cartoon happy chemical in a cylindrical container freezing but happy by impressionist artist.png",
   "image": "Untitled Project_assets/thumbnail/BQJ4EAZJGN.png"
  },
  {
   "alpha": {
    "Points": [
     {
      "co": {
       "X": 1.0,
       "Y": 1.0
      },
      "interpolation": 2
     }
    ]
   },
   "anchor": 0,
   "channel_filter": {
    "Points": [
     {
      "co": {
       "X": 1.0,
       "Y": -1.0
      },
      "interpolation": 2
     }
    ]
   },
   "channel_mapping": {
    "Points": [
     {
      "co": {
       "X": 1.0,
       "Y": -1.0
      },
      "interpolation": 2
     }
    ]
   },
   "display": 0,
   "duration": 124.60800170898438,
   "effects": [],
   "end": 124.60800170898438,
   "gravity": 4,
   "has_audio": {
    "Points": [
     {
      "co": {
       "X": 1.0,
       "Y": -1.0
      },
      "interpolation": 2
     }
    ]
   },
   "has_video": {
    "Points": [
     {
      "co": {
       "X": 1.0,
       "Y": -1.0
      },
      "interpolation": 2
     }
    ]
   },
   "id": "HTIBIX1XQ9",
   "layer": 4000000,
   "location_x": {
    "Points": [
     {
      "co": {
       "X": 1.0,
       "Y": 0.0
      },
      "interpolation": 2
     }
    ]
   },
   "location_y": {
    "Points": [
     {
      "co": {
       "X": 1.0,
       "Y": 0.0
      },
      "interpolation": 2
     }
    ]
   },
   "mixing": 0,
   "origin_x": {
    "Points": [
     {
      "co": {
       "X": 1.0,
       "Y": 0.5
      },
      "interpolation": 2
     }
    ]
   },
   "origin_y": {
    "Points": [
     {
      "co": {
       "X": 1.0,
       "Y": 0.5
      },
      "interpolation": 2
     }
    ]
   },
   "parentObjectId": "",
   "perspective_c1_x": {
    "Points": [
     {
      "co": {
       "X": 1.0,
       "Y": -1.0
      },
      "interpolation": 2
     }
    ]
   },
   "perspective_c1_y": {
    "Points": [
     {
      "co": {
       "X": 1.0,
       "Y": -1.0
      },
      "interpolation": 2
     }
    ]
   },
   "perspective_c2_x": {
    "Points": [
     {
      "co": {
       "X": 1.0,
       "Y": -1.0
      },
      "interpolation": 2
     }
    ]
   },
   "perspective_c2_y": {
    "Points": [
     {
      "co": {
       "X": 1.0,
       "Y": -1.0
      },
      "interpolation": 2
     }
    ]
   },
   "perspective_c3_x": {
    "Points": [
     {
      "co": {
       "X": 1.0,
       "Y": -1.0
      },
      "interpolation": 2
     }
    ]
   },
   "perspective_c3_y": {
    "Points": [
     {
      "co": {
       "X": 1.0,
       "Y": -1.0
      },
      "interpolation": 2
     }
    ]
   },
   "perspective_c4_x": {
    "Points": [
     {
      "co": {
       "X": 1.0,
       "Y": -1.0
      },
      "interpolation": 2
     }
    ]
   },
   "perspective_c4_y": {
    "Points": [
     {
      "co": {
       "X": 1.0,
       "Y": -1.0
      },
      "interpolation": 2
     }
    ]
   },
   "position": 0,
   "reader": {
    "acodec": "mp3float",
    "audio_bit_rate": 192000,
    "audio_stream_index": 0,
    "audio_timebase": {
     "den": 14112000,
     "num": 1
    },
    "channel_layout": 3,
    "channels": 2,
    "display_ratio": {
     "den": 1,
     "num": 1
    },
    "duration": 124.60800170898438,
    "file_size": "2990592",
    "fps": {
     "den": 1,
     "num": 24
    },
    "has_audio": true,
    "has_single_image": false,
    "has_video": false,
    "height": 480,
    "interlaced_frame": false,
    "metadata": {},
    "path": "./Mon May 29 2023.mp3",
    "pixel_format": -1,
    "pixel_ratio": {
     "den": 1,
     "num": 1
    },
    "sample_rate": 48000,
    "top_field_first": true,
    "type": "FFmpegReader",
    "vcodec": "",
    "video_bit_rate": 0,
    "video_length": "2990",
    "video_stream_index": -1,
    "video_timebase": {
     "den": 24,
     "num": 1
    },
    "width": 720
   },
   "rotation": {
    "Points": [
     {
      "co": {
       "X": 1.0,
       "Y": 0.0
      },
      "interpolation": 2
     }
    ]
   },
   "scale": 1,
   "scale_x": {
    "Points": [
     {
      "co": {
       "X": 1.0,
       "Y": 1.0
      },
      "interpolation": 2
     }
    ]
   },
   "scale_y": {
    "Points": [
     {
      "co": {
       "X": 1.0,
       "Y": 1.0
      },
      "interpolation": 2
     }
    ]
   },
   "shear_x": {
    "Points": [
     {
      "co": {
       "X": 1.0,
       "Y": 0.0
      },
      "interpolation": 2
     }
    ]
   },
   "shear_y": {
    "Points": [
     {
      "co": {
       "X": 1.0,
       "Y": 0.0
      },
      "interpolation": 2
     }
    ]
   },
   "start": 0,
   "time": {
    "Points": [
     {
      "co": {
       "X": 1.0,
       "Y": 1.0
      },
      "interpolation": 2
     }
    ]
   },
   "volume": {
    "Points": [
     {
      "co": {
       "X": 1.0,
       "Y": 1.0
      },
      "interpolation": 2
     }
    ]
   },
   "wave_color": {
    "alpha": {
     "Points": [
      {
       "co": {
        "X": 1.0,
        "Y": 255.0
       },
       "handle_left": {
        "X": 0.5,
        "Y": 1.0
       },
       "handle_right": {
        "X": 0.5,
        "Y": 0.0
       },
       "handle_type": 0,
       "interpolation": 0
      }
     ]
    },
    "blue": {
     "Points": [
      {
       "co": {
        "X": 1.0,
        "Y": 255.0
       },
       "handle_left": {
        "X": 0.5,
        "Y": 1.0
       },
       "handle_right": {
        "X": 0.5,
        "Y": 0.0
       },
       "handle_type": 0,
       "interpolation": 0
      }
     ]
    },
    "green": {
     "Points": [
      {
       "co": {
        "X": 1.0,
        "Y": 123.0
       },
       "handle_left": {
        "X": 0.5,
        "Y": 1.0
       },
       "handle_right": {
        "X": 0.5,
        "Y": 0.0
       },
       "handle_type": 0,
       "interpolation": 0
      }
     ]
    },
    "red": {
     "Points": [
      {
       "co": {
        "X": 1.0,
        "Y": 0.0
       },
       "handle_left": {
        "X": 0.5,
        "Y": 1.0
       },
       "handle_right": {
        "X": 0.5,
        "Y": 0.0
       },
       "handle_type": 0,
       "interpolation": 0
      }
     ]
    }
   },
   "waveform": false,
   "file_id": "ISB5EJ34SX",
   "title": "Mon May 29 2023.mp3",
   "image": "Untitled Project_assets/thumbnail/ISB5EJ34SX.png"
  }
 ],
 "effects": [
  {
   "id": "1EQZ7R0O1K",
   "layer": 5000000,
   "title": "Transition",
   "type": "Mask",
   "position": -0.8833333333333363,
   "start": 0,
   "end": 12.700000000000001,
   "brightness": {
    "Points": [
     {
      "co": {
       "X": 1,
       "Y": 1
      },
      "handle_left": {
       "X": 0.5,
       "Y": 1
      },
      "handle_right": {
       "X": 0.5,
       "Y": 0
      },
      "handle_type": 0,
      "interpolation": 0
     },
     {
      "co": {
       "X": 382,
       "Y": -1
      },
      "handle_left": {
       "X": 0.5,
       "Y": 1
      },
      "handle_right": {
       "X": 0.5,
       "Y": 0
      },
      "handle_type": 0,
      "interpolation": 0
     }
    ]
   },
   "contrast": {
    "Points": [
     {
      "co": {
       "X": 1,
       "Y": 3
      },
      "interpolation": 2
     }
    ]
   },
   "reader": {
    "acodec": "",
    "audio_bit_rate": 0,
    "audio_stream_index": -1,
    "audio_timebase": {
     "den": 1,
     "num": 1
    },
    "channel_layout": 4,
    "channels": 0,
    "display_ratio": {
     "den": 4,
     "num": 5
    },
    "duration": 3600.0,
    "file_size": "5832000",
    "fps": {
     "den": 1,
     "num": 30
    },
    "has_audio": false,
    "has_single_image": true,
    "has_video": true,
    "height": 576,
    "interlaced_frame": false,
    "metadata": {},
    "path": "@transitions/common/circle_out_to_in.svg",
    "pixel_format": -1,
    "pixel_ratio": {
     "den": 1,
     "num": 1
    },
    "sample_rate": 0,
    "top_field_first": true,
    "type": "QtImageReader",
    "vcodec": "",
    "video_bit_rate": 0,
    "video_length": "108000",
    "video_stream_index": -1,
    "video_timebase": {
     "den": 30,
     "num": 1
    },
    "width": 720
   },
   "replace_image": false
  },
  {
   "id": "XX5P3NOR9U",
   "layer": 5000000,
   "title": "Transition",
   "type": "Mask",
   "position": 21.150000000000006,
   "start": 0,
   "end": 10,
   "brightness": {
    "Points": [
     {
      "co": {
       "X": 1,
       "Y": 1
      },
      "handle_left": {
       "X": 0.5,
       "Y": 1
      },
      "handle_right": {
       "X": 0.5,
       "Y": 0
      },
      "handle_type": 0,
      "interpolation": 0
     },
     {
      "co": {
       "X": 301,
       "Y": -1
      },
      "handle_left": {
       "X": 0.5,
       "Y": 1
      },
      "handle_right": {
       "X": 0.5,
       "Y": 0
      },
      "handle_type": 0,
      "interpolation": 0
     }
    ]
   },
   "contrast": {
    "Points": [
     {
      "co": {
       "X": 1,
       "Y": 3
      },
      "interpolation": 2
     }
    ]
   },
   "reader": {
    "acodec": "",
    "audio_bit_rate": 0,
    "audio_stream_index": -1,
    "audio_timebase": {
     "den": 1,
     "num": 1
    },
    "channel_layout": 4,
    "channels": 0,
    "display_ratio": {
     "den": 4,
     "num": 5
    },
    "duration": 3600.0,
    "file_size": "5832000",
    "fps": {
     "den": 1,
     "num": 30
    },
    "has_audio": false,
    "has_single_image": true,
    "has_video": true,
    "height": 576,
    "interlaced_frame": false,
    "metadata": {},
    "path": "@transitions/common/wipe_bottom_to_top.svg",
    "pixel_format": -1,
    "pixel_ratio": {
     "den": 1,
     "num": 1
    },
    "sample_rate": 0,
    "top_field_first": true,
    "type": "QtImageReader",
    "vcodec": "",
    "video_bit_rate": 0,
    "video_length": "108000",
    "video_stream_index": -1,
    "video_timebase": {
     "den": 30,
     "num": 1
    },
    "width": 720
   },
   "replace_image": false
  },
  {
   "id": "G8R5KKBRXE",
   "layer": 5000000,
   "title": "Transition",
   "type": "Mask",
   "position": 31.150000000000006,
   "start": 0,
   "end": 10,
   "brightness": {
    "Points": [
     {
      "co": {
       "X": 1,
       "Y": 1
      },
      "handle_left": {
       "X": 0.5,
       "Y": 1
      },
      "handle_right": {
       "X": 0.5,
       "Y": 0
      },
      "handle_type": 0,
      "interpolation": 0
     },
     {
      "co": {
       "X": 301,
       "Y": -1
      },
      "handle_left": {
       "X": 0.5,
       "Y": 1
      },
      "handle_right": {
       "X": 0.5,
       "Y": 0
      },
      "handle_type": 0,
      "interpolation": 0
     }
    ]
   },
   "contrast": {
    "Points": [
     {
      "co": {
       "X": 1,
       "Y": 3
      },
      "interpolation": 2
     }
    ]
   },
   "reader": {
    "acodec": "",
    "audio_bit_rate": 0,
    "audio_stream_index": -1,
    "audio_timebase": {
     "den": 1,
     "num": 1
    },
    "channel_layout": 4,
    "channels": 0,
    "display_ratio": {
     "den": 4,
     "num": 5
    },
    "duration": 3600.0,
    "file_size": "5832000",
    "fps": {
     "den": 1,
     "num": 30
    },
    "has_audio": false,
    "has_single_image": true,
    "has_video": true,
    "height": 576,
    "interlaced_frame": false,
    "metadata": {},
    "path": "@transitions/common/wipe_left_to_right.svg",
    "pixel_format": -1,
    "pixel_ratio": {
     "den": 1,
     "num": 1
    },
    "sample_rate": 0,
    "top_field_first": true,
    "type": "QtImageReader",
    "vcodec": "",
    "video_bit_rate": 0,
    "video_length": "108000",
    "video_stream_index": -1,
    "video_timebase": {
     "den": 30,
     "num": 1
    },
    "width": 720
   },
   "replace_image": false
  }
 ],
 "export_path": "",
 "import_path": "C:/a/diy/communication/experimentDotCom/enzyme cooler",
 "files": [
  {
   "acodec": "",
   "audio_bit_rate": 0,
   "audio_stream_index": -1,
   "audio_timebase": {
    "den": 1,
    "num": 1
   },
   "channel_layout": 4,
   "channels": 0,
   "display_ratio": {
    "den": 44,
    "num": 53
   },
   "duration": 3600.0,
   "file_size": "457072",
   "fps": {
    "den": 1,
    "num": 30
   },
   "has_audio": false,
   "has_single_image": true,
   "has_video": true,
   "height": 308,
   "interlaced_frame": false,
   "metadata": {},
   "path": "./Untitled.png",
   "pixel_format": -1,
   "pixel_ratio": {
    "den": 1,
    "num": 1
   },
   "sample_rate": 0,
   "top_field_first": true,
   "type": "QtImageReader",
   "vcodec": "",
   "video_bit_rate": 0,
   "video_length": "108000",
   "video_stream_index": -1,
   "video_timebase": {
    "den": 30,
    "num": 1
   },
   "width": 371,
   "media_type": "image",
   "id": "0EE7FV71L9",
   "image": "Untitled Project_assets/thumbnail/0EE7FV71L9.png"
  },
  {
   "acodec": "",
   "audio_bit_rate": 0,
   "audio_stream_index": -1,
   "audio_timebase": {
    "den": 1,
    "num": 1
   },
   "channel_layout": 4,
   "channels": 0,
   "display_ratio": {
    "den": 1,
    "num": 1
   },
   "duration": 3600.0,
   "file_size": "4194304",
   "fps": {
    "den": 1,
    "num": 30
   },
   "has_audio": false,
   "has_single_image": true,
   "has_video": true,
   "height": 1024,
   "interlaced_frame": false,
   "metadata": {},
   "path": "./_20ce3b88-fb24-4200-a1cd-7e2c6d5aa870.jpg",
   "pixel_format": -1,
   "pixel_ratio": {
    "den": 1,
    "num": 1
   },
   "sample_rate": 0,
   "top_field_first": true,
   "type": "QtImageReader",
   "vcodec": "",
   "video_bit_rate": 0,
   "video_length": "108000",
   "video_stream_index": -1,
   "video_timebase": {
    "den": 30,
    "num": 1
   },
   "width": 1024,
   "media_type": "image",
   "id": "A0J5O8308C",
   "image": "Untitled Project_assets/thumbnail/A0J5O8308C.png"
  },
  {
   "acodec": "",
   "audio_bit_rate": 0,
   "audio_stream_index": -1,
   "audio_timebase": {
    "den": 1,
    "num": 1
   },
   "channel_layout": 4,
   "channels": 0,
   "display_ratio": {
    "den": 1,
    "num": 1
   },
   "duration": 3600.0,
   "file_size": "4194304",
   "fps": {
    "den": 1,
    "num": 30
   },
   "has_audio": false,
   "has_single_image": true,
   "has_video": true,
   "height": 1024,
   "interlaced_frame": false,
   "metadata": {},
   "path": "./_2983e755-c245-4dad-8d12-3d2989e07a17.jpg",
   "pixel_format": -1,
   "pixel_ratio": {
    "den": 1,
    "num": 1
   },
   "sample_rate": 0,
   "top_field_first": true,
   "type": "QtImageReader",
   "vcodec": "",
   "video_bit_rate": 0,
   "video_length": "108000",
   "video_stream_index": -1,
   "video_timebase": {
    "den": 30,
    "num": 1
   },
   "width": 1024,
   "media_type": "image",
   "id": "XTFLOQGJCI",
   "image": "Untitled Project_assets/thumbnail/XTFLOQGJCI.png"
  },
  {
   "acodec": "",
   "audio_bit_rate": 0,
   "audio_stream_index": -1,
   "audio_timebase": {
    "den": 1,
    "num": 1
   },
   "channel_layout": 4,
   "channels": 0,
   "display_ratio": {
    "den": 1,
    "num": 1
   },
   "duration": 3600.0,
   "file_size": "4194304",
   "fps": {
    "den": 1,
    "num": 30
   },
   "has_audio": false,
   "has_single_image": true,
   "has_video": true,
   "height": 1024,
   "interlaced_frame": false,
   "metadata": {},
   "path": "./_93d17ba4-6f0e-4ddc-a413-0154b6235124.jpg",
   "pixel_format": -1,
   "pixel_ratio": {
    "den": 1,
    "num": 1
   },
   "sample_rate": 0,
   "top_field_first": true,
   "type": "QtImageReader",
   "vcodec": "",
   "video_bit_rate": 0,
   "video_length": "108000",
   "video_stream_index": -1,
   "video_timebase": {
    "den": 30,
    "num": 1
   },
   "width": 1024,
   "media_type": "image",
   "id": "OQ00HNVEKI",
   "image": "Untitled Project_assets/thumbnail/OQ00HNVEKI.png"
  },
  {
   "acodec": "",
   "audio_bit_rate": 0,
   "audio_stream_index": -1,
   "audio_timebase": {
    "den": 1,
    "num": 1
   },
   "channel_layout": 4,
   "channels": 0,
   "display_ratio": {
    "den": 1,
    "num": 1
   },
   "duration": 3600.0,
   "file_size": "4194304",
   "fps": {
    "den": 1,
    "num": 30
   },
   "has_audio": false,
   "has_single_image": true,
   "has_video": true,
   "height": 1024,
   "interlaced_frame": false,
   "metadata": {},
   "path": "./_a61550fd-efb7-4979-bf76-c735f926892b.jpg",
   "pixel_format": -1,
   "pixel_ratio": {
    "den": 1,
    "num": 1
   },
   "sample_rate": 0,
   "top_field_first": true,
   "type": "QtImageReader",
   "vcodec": "",
   "video_bit_rate": 0,
   "video_length": "108000",
   "video_stream_index": -1,
   "video_timebase": {
    "den": 30,
    "num": 1
   },
   "width": 1024,
   "media_type": "image",
   "id": "93Q1Q8HU8O",
   "image": "Untitled Project_assets/thumbnail/93Q1Q8HU8O.png"
  },
  {
   "acodec": "",
   "audio_bit_rate": 0,
   "audio_stream_index": -1,
   "audio_timebase": {
    "den": 1,
    "num": 1
   },
   "channel_layout": 4,
   "channels": 0,
   "display_ratio": {
    "den": 1,
    "num": 1
   },
   "duration": 3600.0,
   "file_size": "492804",
   "fps": {
    "den": 1,
    "num": 30
   },
   "has_audio": false,
   "has_single_image": true,
   "has_video": true,
   "height": 351,
   "interlaced_frame": false,
   "metadata": {},
   "path": "./big freezer.jpg",
   "pixel_format": -1,
   "pixel_ratio": {
    "den": 1,
    "num": 1
   },
   "sample_rate": 0,
   "top_field_first": true,
   "type": "QtImageReader",
   "vcodec": "",
   "video_bit_rate": 0,
   "video_length": "108000",
   "video_stream_index": -1,
   "video_timebase": {
    "den": 30,
    "num": 1
   },
   "width": 351,
   "media_type": "image",
   "id": "J2IPUCTF18",
   "image": "Untitled Project_assets/thumbnail/J2IPUCTF18.png"
  },
  {
   "acodec": "",
   "audio_bit_rate": 0,
   "audio_stream_index": -1,
   "audio_timebase": {
    "den": 1,
    "num": 1
   },
   "channel_layout": 4,
   "channels": 0,
   "display_ratio": {
    "den": 1,
    "num": 1
   },
   "duration": 3600.0,
   "file_size": "4194304",
   "fps": {
    "den": 1,
    "num": 30
   },
   "has_audio": false,
   "has_single_image": true,
   "has_video": true,
   "height": 1024,
   "interlaced_frame": false,
   "metadata": {},
   "path": "./cartoon happy chemical in a cylindrical container freezing but happy by impressionist artist.png",
   "pixel_format": -1,
   "pixel_ratio": {
    "den": 1,
    "num": 1
   },
   "sample_rate": 0,
   "top_field_first": true,
   "type": "QtImageReader",
   "vcodec": "",
   "video_bit_rate": 0,
   "video_length": "108000",
   "video_stream_index": -1,
   "video_timebase": {
    "den": 30,
    "num": 1
   },
   "width": 1024,
   "media_type": "image",
   "id": "BQJ4EAZJGN",
   "image": "Untitled Project_assets/thumbnail/BQJ4EAZJGN.png"
  },
  {
   "acodec": "",
   "audio_bit_rate": 0,
   "audio_stream_index": -1,
   "audio_timebase": {
    "den": 1,
    "num": 1
   },
   "channel_layout": 4,
   "channels": 0,
   "display_ratio": {
    "den": 1,
    "num": 1
   },
   "duration": 3600.0,
   "file_size": "4194304",
   "fps": {
    "den": 1,
    "num": 30
   },
   "has_audio": false,
   "has_single_image": true,
   "has_video": true,
   "height": 1024,
   "interlaced_frame": false,
   "metadata": {},
   "path": "./happy face researcher with white gown holding a metallic  cylinder 10 cm by 10 cmcooler and smiling.png",
   "pixel_format": -1,
   "pixel_ratio": {
    "den": 1,
    "num": 1
   },
   "sample_rate": 0,
   "top_field_first": true,
   "type": "QtImageReader",
   "vcodec": "",
   "video_bit_rate": 0,
   "video_length": "108000",
   "video_stream_index": -1,
   "video_timebase": {
    "den": 30,
    "num": 1
   },
   "width": 1024,
   "media_type": "image",
   "id": "7XYTPOQW7E",
   "image": "Untitled Project_assets/thumbnail/7XYTPOQW7E.png"
  },
  {
   "acodec": "",
   "audio_bit_rate": 0,
   "audio_stream_index": -1,
   "audio_timebase": {
    "den": 1,
    "num": 1
   },
   "channel_layout": 4,
   "channels": 0,
   "display_ratio": {
    "den": 1,
    "num": 1
   },
   "duration": 3600.0,
   "file_size": "4194304",
   "fps": {
    "den": 1,
    "num": 30
   },
   "has_audio": false,
   "has_single_image": true,
   "has_video": true,
   "height": 1024,
   "interlaced_frame": false,
   "metadata": {},
   "path": "./happy face researcher with white gown holding a metallic looking cilinder the sizeof a soup container like object and smiling.png",
   "pixel_format": -1,
   "pixel_ratio": {
    "den": 1,
    "num": 1
   },
   "sample_rate": 0,
   "top_field_first": true,
   "type": "QtImageReader",
   "vcodec": "",
   "video_bit_rate": 0,
   "video_length": "108000",
   "video_stream_index": -1,
   "video_timebase": {
    "den": 30,
    "num": 1
   },
   "width": 1024,
   "media_type": "image",
   "id": "240F2BKCXL",
   "image": "Untitled Project_assets/thumbnail/240F2BKCXL.png"
  },
  {
   "acodec": "",
   "audio_bit_rate": 0,
   "audio_stream_index": -1,
   "audio_timebase": {
    "den": 1,
    "num": 1
   },
   "channel_layout": 4,
   "channels": 0,
   "display_ratio": {
    "den": 1,
    "num": 1
   },
   "duration": 3600.0,
   "file_size": "4194304",
   "fps": {
    "den": 1,
    "num": 30
   },
   "has_audio": false,
   "has_single_image": true,
   "has_video": true,
   "height": 1024,
   "interlaced_frame": false,
   "metadata": {},
   "path": "./heppy enzyme.png",
   "pixel_format": -1,
   "pixel_ratio": {
    "den": 1,
    "num": 1
   },
   "sample_rate": 0,
   "top_field_first": true,
   "type": "QtImageReader",
   "vcodec": "",
   "video_bit_rate": 0,
   "video_length": "108000",
   "video_stream_index": -1,
   "video_timebase": {
    "den": 30,
    "num": 1
   },
   "width": 1024,
   "media_type": "image",
   "id": "GIPT8821VE",
   "image": "Untitled Project_assets/thumbnail/GIPT8821VE.png"
  },
  {
   "acodec": "",
   "audio_bit_rate": 0,
   "audio_stream_index": -1,
   "audio_timebase": {
    "den": 1,
    "num": 1
   },
   "channel_layout": 4,
   "channels": 0,
   "display_ratio": {
    "den": 1,
    "num": 1
   },
   "duration": 3600.0,
   "file_size": "4194304",
   "fps": {
    "den": 1,
    "num": 30
   },
   "has_audio": false,
   "has_single_image": true,
   "has_video": true,
   "height": 1024,
   "interlaced_frame": false,
   "metadata": {},
   "path": "./researcher in a white gown crashed by a giant freezer digital art.png",
   "pixel_format": -1,
   "pixel_ratio": {
    "den": 1,
    "num": 1
   },
   "sample_rate": 0,
   "top_field_first": true,
   "type": "QtImageReader",
   "vcodec": "",
   "video_bit_rate": 0,
   "video_length": "108000",
   "video_stream_index": -1,
   "video_timebase": {
    "den": 30,
    "num": 1
   },
   "width": 1024,
   "media_type": "image",
   "id": "483I423UID",
   "image": "Untitled Project_assets/thumbnail/483I423UID.png"
  },
  {
   "acodec": "",
   "audio_bit_rate": 0,
   "audio_stream_index": -1,
   "audio_timebase": {
    "den": 1,
    "num": 1
   },
   "channel_layout": 4,
   "channels": 0,
   "display_ratio": {
    "den": 1,
    "num": 1
   },
   "duration": 3600.0,
   "file_size": "4194304",
   "fps": {
    "den": 1,
    "num": 30
   },
   "has_audio": false,
   "has_single_image": true,
   "has_video": true,
   "height": 1024,
   "interlaced_frame": false,
   "metadata": {},
   "path": "./researcher in a white gown squished by a giant freezer digital art.png",
   "pixel_format": -1,
   "pixel_ratio": {
    "den": 1,
    "num": 1
   },
   "sample_rate": 0,
   "top_field_first": true,
   "type": "QtImageReader",
   "vcodec": "",
   "video_bit_rate": 0,
   "video_length": "108000",
   "video_stream_index": -1,
   "video_timebase": {
    "den": 30,
    "num": 1
   },
   "width": 1024,
   "media_type": "image",
   "id": "CXQIZNOKZO",
   "image": "Untitled Project_assets/thumbnail/CXQIZNOKZO.png"
  },
  {
   "acodec": "",
   "audio_bit_rate": 0,
   "audio_stream_index": -1,
   "audio_timebase": {
    "den": 1,
    "num": 1
   },
   "channel_layout": 4,
   "channels": 0,
   "display_ratio": {
    "den": 1,
    "num": 1
   },
   "duration": 3600.0,
   "file_size": "4194304",
   "fps": {
    "den": 1,
    "num": 30
   },
   "has_audio": false,
   "has_single_image": true,
   "has_video": true,
   "height": 1024,
   "interlaced_frame": false,
   "metadata": {},
   "path": "./sad researcher with big fridge.png",
   "pixel_format": -1,
   "pixel_ratio": {
    "den": 1,
    "num": 1
   },
   "sample_rate": 0,
   "top_field_first": true,
   "type": "QtImageReader",
   "vcodec": "",
   "video_bit_rate": 0,
   "video_length": "108000",
   "video_stream_index": -1,
   "video_timebase": {
    "den": 30,
    "num": 1
   },
   "width": 1024,
   "media_type": "image",
   "id": "UW5KBQQAME",
   "image": "Untitled Project_assets/thumbnail/UW5KBQQAME.png"
  },
  {
   "acodec": "mp3float",
   "audio_bit_rate": 192000,
   "audio_stream_index": 0,
   "audio_timebase": {
    "den": 14112000,
    "num": 1
   },
   "channel_layout": 3,
   "channels": 2,
   "display_ratio": {
    "den": 1,
    "num": 1
   },
   "duration": 124.60800170898438,
   "file_size": "2990592",
   "fps": {
    "den": 1,
    "num": 24
   },
   "has_audio": true,
   "has_single_image": false,
   "has_video": false,
   "height": 480,
   "interlaced_frame": false,
   "metadata": {},
   "path": "./Mon May 29 2023.mp3",
   "pixel_format": -1,
   "pixel_ratio": {
    "den": 1,
    "num": 1
   },
   "sample_rate": 48000,
   "top_field_first": true,
   "type": "FFmpegReader",
   "vcodec": "",
   "video_bit_rate": 0,
   "video_length": "2990",
   "video_stream_index": -1,
   "video_timebase": {
    "den": 24,
    "num": 1
   },
   "width": 720,
   "media_type": "audio",
   "id": "ISB5EJ34SX",
   "image": "Untitled Project_assets/thumbnail/ISB5EJ34SX.png"
  }
 ],
 "duration": 300,
 "scale": 15.000000000000004,
 "tick_pixels": 100,
 "playhead_position": 0,
 "profile": "HD 720p 30 fps",
 "layers": [
  {
   "id": "L1",
   "label": "",
   "number": 1000000,
   "y": 0,
   "lock": false
  },
  {
   "id": "L2",
   "label": "",
   "number": 2000000,
   "y": 0,
   "lock": false
  },
  {
   "id": "L3",
   "label": "",
   "number": 3000000,
   "y": 0,
   "lock": false
  },
  {
   "id": "L4",
   "label": "",
   "number": 4000000,
   "y": 0,
   "lock": false
  },
  {
   "id": "L5",
   "label": "",
   "number": 5000000,
   "y": 0,
   "lock": false
  }
 ],
 "markers": [],
 "progress": [],
 "history": {
  "undo": [
   {
    "type": "update",
    "key": [
     "effects",
     {
      "id": "2ULRKTGUTC"
     }
    ],
    "value": {
     "id": "2ULRKTGUTC",
     "layer": 5000000,
     "position": 48.46666666666667,
     "start": 0,
     "end": 6.699999999999999,
     "brightness": {
      "Points": [
       {
        "co": {
         "X": 1,
         "Y": 1
        },
        "handle_left": {
         "X": 0.5,
         "Y": 1
        },
        "handle_right": {
         "X": 0.5,
         "Y": 0
        },
        "handle_type": 0,
        "interpolation": 0
       },
       {
        "co": {
         "X": 202,
         "Y": -1
        },
        "handle_left": {
         "X": 0.5,
         "Y": 1
        },
        "handle_right": {
         "X": 0.5,
         "Y": 0
        },
        "handle_type": 0,
        "interpolation": 0
       }
      ]
     },
     "contrast": {
      "Points": [
       {
        "co": {
         "X": 1,
         "Y": 3
        },
        "interpolation": 2
       }
      ]
     }
    },
    "partial": false,
    "old_values": {
     "id": "2ULRKTGUTC",
     "layer": 5000000,
     "title": "Transition",
     "type": "Mask",
     "position": -0.6833333333333348,
     "start": 0,
     "end": 6.699999999999999,
     "brightness": {
      "Points": [
       {
        "co": {
         "X": 1,
         "Y": 1
        },
        "handle_left": {
         "X": 0.5,
         "Y": 1
        },
        "handle_right": {
         "X": 0.5,
         "Y": 0
        },
        "handle_type": 0,
        "interpolation": 0
       },
       {
        "co": {
         "X": 202,
         "Y": -1
        },
        "handle_left": {
         "X": 0.5,
         "Y": 1
        },
        "handle_right": {
         "X": 0.5,
         "Y": 0
        },
        "handle_type": 0,
        "interpolation": 0
       }
      ]
     },
     "contrast": {
      "Points": [
       {
        "co": {
         "X": 1,
         "Y": 3
        },
        "interpolation": 2
       }
      ]
     },
     "reader": {
      "acodec": "",
      "audio_bit_rate": 0,
      "audio_stream_index": -1,
      "audio_timebase": {
       "den": 1,
       "num": 1
      },
      "channel_layout": 4,
      "channels": 0,
      "display_ratio": {
       "den": 4,
       "num": 5
      },
      "duration": 3600.0,
      "file_size": "5832000",
      "fps": {
       "den": 1,
       "num": 30
      },
      "has_audio": false,
      "has_single_image": true,
      "has_video": true,
      "height": 576,
      "interlaced_frame": false,
      "metadata": {},
      "path": "@transitions/common/circle_in_to_out.svg",
      "pixel_format": -1,
      "pixel_ratio": {
       "den": 1,
       "num": 1
      },
      "sample_rate": 0,
      "top_field_first": true,
      "type": "QtImageReader",
      "vcodec": "",
      "video_bit_rate": 0,
      "video_length": "108000",
      "video_stream_index": -1,
      "video_timebase": {
       "den": 30,
       "num": 1
      },
      "width": 720
     },
     "replace_image": false
    }
   },
   {
    "type": "update",
    "key": [
     "clips",
     {
      "id": "I8ZAUIC6E8"
     }
    ],
    "value": {
     "id": "I8ZAUIC6E8",
     "layer": 5000000,
     "position": 7.6833333333333345,
     "start": 7.650000000000001,
     "end": 11.950000000000001
    },
    "partial": false,
    "old_values": {
     "alpha": {
      "Points": [
       {
        "co": {
         "X": 1.0,
         "Y": 1.0
        },
        "interpolation": 2
       }
      ]
     },
     "anchor": 0,
     "channel_filter": {
      "Points": [
       {
        "co": {
         "X": 1.0,
         "Y": -1.0
        },
        "interpolation": 2
       }
      ]
     },
     "channel_mapping": {
      "Points": [
       {
        "co": {
         "X": 1.0,
         "Y": -1.0
        },
        "interpolation": 2
       }
      ]
     },
     "display": 0,
     "duration": 3600.0,
     "effects": [],
     "end": 11.950000000000001,
     "gravity": 4,
     "has_audio": {
      "Points": [
       {
        "co": {
         "X": 1.0,
         "Y": -1.0
        },
        "interpolation": 2
       }
      ]
     },
     "has_video": {
      "Points": [
       {
        "co": {
         "X": 1.0,
         "Y": -1.0
        },
        "interpolation": 2
       }
      ]
     },
     "id": "I8ZAUIC6E8",
     "layer": 5000000,
     "location_x": {
      "Points": [
       {
        "co": {
         "X": 1.0,
         "Y": 0.0
        },
        "interpolation": 2
       }
      ]
     },
     "location_y": {
      "Points": [
       {
        "co": {
         "X": 1.0,
         "Y": 0.0
        },
        "interpolation": 2
       }
      ]
     },
     "mixing": 0,
     "origin_x": {
      "Points": [
       {
        "co": {
         "X": 1.0,
         "Y": 0.5
        },
        "interpolation": 2
       }
      ]
     },
     "origin_y": {
      "Points": [
       {
        "co": {
         "X": 1.0,
         "Y": 0.5
        },
        "interpolation": 2
       }
      ]
     },
     "parentObjectId": "",
     "perspective_c1_x": {
      "Points": [
       {
        "co": {
         "X": 1.0,
         "Y": -1.0
        },
        "interpolation": 2
       }
      ]
     },
     "perspective_c1_y": {
      "Points": [
       {
        "co": {
         "X": 1.0,
         "Y": -1.0
        },
        "interpolation": 2
       }
      ]
     },
     "perspective_c2_x": {
      "Points": [
       {
        "co": {
         "X": 1.0,
         "Y": -1.0
        },
        "interpolation": 2
       }
      ]
     },
     "perspective_c2_y": {
      "Points": [
       {
        "co": {
         "X": 1.0,
         "Y": -1.0
        },
        "interpolation": 2
       }
      ]
     },
     "perspective_c3_x": {
      "Points": [
       {
        "co": {
         "X": 1.0,
         "Y": -1.0
        },
        "interpolation": 2
       }
      ]
     },
     "perspective_c3_y": {
      "Points": [
       {
        "co": {
         "X": 1.0,
         "Y": -1.0
        },
        "interpolation": 2
       }
      ]
     },
     "perspective_c4_x": {
      "Points": [
       {
        "co": {
         "X": 1.0,
         "Y": -1.0
        },
        "interpolation": 2
       }
      ]
     },
     "perspective_c4_y": {
      "Points": [
       {
        "co": {
         "X": 1.0,
         "Y": -1.0
        },
        "interpolation": 2
       }
      ]
     },
     "position": 3.333333333333334,
     "reader": {
      "acodec": "",
      "audio_bit_rate": 0,
      "audio_stream_index": -1,
      "audio_timebase": {
       "den": 1,
       "num": 1
      },
      "channel_layout": 4,
      "channels": 0,
      "display_ratio": {
       "den": 1,
       "num": 1
      },
      "duration": 3600.0,
      "file_size": "492804",
      "fps": {
       "den": 1,
       "num": 30
      },
      "has_audio": false,
      "has_single_image": true,
      "has_video": true,
      "height": 351,
      "interlaced_frame": false,
      "metadata": {},
      "path": "./big freezer.jpg",
      "pixel_format": -1,
      "pixel_ratio": {
       "den": 1,
       "num": 1
      },
      "sample_rate": 0,
      "top_field_first": true,
      "type": "QtImageReader",
      "vcodec": "",
      "video_bit_rate": 0,
      "video_length": "108000",
      "video_stream_index": -1,
      "video_timebase": {
       "den": 30,
       "num": 1
      },
      "width": 351
     },
     "rotation": {
      "Points": [
       {
        "co": {
         "X": 1.0,
         "Y": 0.0
        },
        "interpolation": 2
       }
      ]
     },
     "scale": 1,
     "scale_x": {
      "Points": [
       {
        "co": {
         "X": 1.0,
         "Y": 1.0
        },
        "interpolation": 2
       }
      ]
     },
     "scale_y": {
      "Points": [
       {
        "co": {
         "X": 1.0,
         "Y": 1.0
        },
        "interpolation": 2
       }
      ]
     },
     "shear_x": {
      "Points": [
       {
        "co": {
         "X": 1.0,
         "Y": 0.0
        },
        "interpolation": 2
       }
      ]
     },
     "shear_y": {
      "Points": [
       {
        "co": {
         "X": 1.0,
         "Y": 0.0
        },
        "interpolation": 2
       }
      ]
     },
     "start": 3.3000000000000007,
     "time": {
      "Points": [
       {
        "co": {
         "X": 1.0,
         "Y": 1.0
        },
        "interpolation": 2
       }
      ]
     },
     "volume": {
      "Points": [
       {
        "co": {
         "X": 1.0,
         "Y": 1.0
        },
        "interpolation": 2
       }
      ]
     },
     "wave_color": {
      "alpha": {
       "Points": [
        {
         "co": {
          "X": 1.0,
          "Y": 255.0
         },
         "handle_left": {
          "X": 0.5,
          "Y": 1.0
         },
         "handle_right": {
          "X": 0.5,
          "Y": 0.0
         },
         "handle_type": 0,
         "interpolation": 0
        }
       ]
      },
      "blue": {
       "Points": [
        {
         "co": {
          "X": 1.0,
          "Y": 255.0
         },
         "handle_left": {
          "X": 0.5,
          "Y": 1.0
         },
         "handle_right": {
          "X": 0.5,
          "Y": 0.0
         },
         "handle_type": 0,
         "interpolation": 0
        }
       ]
      },
      "green": {
       "Points": [
        {
         "co": {
          "X": 1.0,
          "Y": 123.0
         },
         "handle_left": {
          "X": 0.5,
          "Y": 1.0
         },
         "handle_right": {
          "X": 0.5,
          "Y": 0.0
         },
         "handle_type": 0,
         "interpolation": 0
        }
       ]
      },
      "red": {
       "Points": [
        {
         "co": {
          "X": 1.0,
          "Y": 0.0
         },
         "handle_left": {
          "X": 0.5,
          "Y": 1.0
         },
         "handle_right": {
          "X": 0.5,
          "Y": 0.0
         },
         "handle_type": 0,
         "interpolation": 0
        }
       ]
      }
     },
     "waveform": false,
     "file_id": "J2IPUCTF18",
     "title": "big freezer.jpg"
    }
   },
   {
    "type": "update",
    "key": [
     "effects",
     {
      "id": "2ULRKTGUTC"
     }
    ],
    "value": {
     "id": "2ULRKTGUTC",
     "layer": 5000000,
     "position": 2.3333333333333335,
     "start": 0,
     "end": 6.699999999999999,
     "brightness": {
      "Points": [
       {
        "co": {
         "X": 1,
         "Y": 1
        },
        "handle_left": {
         "X": 0.5,
         "Y": 1
        },
        "handle_right": {
         "X": 0.5,
         "Y": 0
        },
        "handle_type": 0,
        "interpolation": 0
       },
       {
        "co": {
         "X": 202,
         "Y": -1
        },
        "handle_left": {
         "X": 0.5,
         "Y": 1
        },
        "handle_right": {
         "X": 0.5,
         "Y": 0
        },
        "handle_type": 0,
        "interpolation": 0
       }
      ]
     },
     "contrast": {
      "Points": [
       {
        "co": {
         "X": 1,
         "Y": 3
        },
        "interpolation": 2
       }
      ]
     }
    },
    "partial": false,
    "old_values": {
     "id": "2ULRKTGUTC",
     "layer": 5000000,
     "title": "Transition",
     "type": "Mask",
     "position": 48.46666666666667,
     "start": 0,
     "end": 6.699999999999999,
     "brightness": {
      "Points": [
       {
        "co": {
         "X": 1,
         "Y": 1
        },
        "handle_left": {
         "X": 0.5,
         "Y": 1
        },
        "handle_right": {
         "X": 0.5,
         "Y": 0
        },
        "handle_type": 0,
        "interpolation": 0
       },
       {
        "co": {
         "X": 202,
         "Y": -1
        },
        "handle_left": {
         "X": 0.5,
         "Y": 1
        },
        "handle_right": {
         "X": 0.5,
         "Y": 0
        },
        "handle_type": 0,
        "interpolation": 0
       }
      ]
     },
     "contrast": {
      "Points": [
       {
        "co": {
         "X": 1,
         "Y": 3
        },
        "interpolation": 2
       }
      ]
     },
     "reader": {
      "acodec": "",
      "audio_bit_rate": 0,
      "audio_stream_index": -1,
      "audio_timebase": {
       "den": 1,
       "num": 1
      },
      "channel_layout": 4,
      "channels": 0,
      "display_ratio": {
       "den": 4,
       "num": 5
      },
      "duration": 3600.0,
      "file_size": "5832000",
      "fps": {
       "den": 1,
       "num": 30
      },
      "has_audio": false,
      "has_single_image": true,
      "has_video": true,
      "height": 576,
      "interlaced_frame": false,
      "metadata": {},
      "path": "@transitions/common/circle_in_to_out.svg",
      "pixel_format": -1,
      "pixel_ratio": {
       "den": 1,
       "num": 1
      },
      "sample_rate": 0,
      "top_field_first": true,
      "type": "QtImageReader",
      "vcodec": "",
      "video_bit_rate": 0,
      "video_length": "108000",
      "video_stream_index": -1,
      "video_timebase": {
       "den": 30,
       "num": 1
      },
      "width": 720
     },
     "replace_image": false
    }
   },
   {
    "type": "update",
    "key": [
     "clips",
     {
      "id": "HTIBIX1XQ9"
     }
    ],
    "value": {
     "id": "HTIBIX1XQ9",
     "layer": 4000000,
     "position": 0,
     "start": 0,
     "end": 124.60800170898438
    },
    "partial": false,
    "old_values": {
     "alpha": {
      "Points": [
       {
        "co": {
         "X": 1.0,
         "Y": 1.0
        },
        "interpolation": 2
       }
      ]
     },
     "anchor": 0,
     "channel_filter": {
      "Points": [
       {
        "co": {
         "X": 1.0,
         "Y": -1.0
        },
        "interpolation": 2
       }
      ]
     },
     "channel_mapping": {
      "Points": [
       {
        "co": {
         "X": 1.0,
         "Y": -1.0
        },
        "interpolation": 2
       }
      ]
     },
     "display": 0,
     "duration": 124.60800170898438,
     "effects": [],
     "end": 124.60800170898438,
     "gravity": 4,
     "has_audio": {
      "Points": [
       {
        "co": {
         "X": 1.0,
         "Y": -1.0
        },
        "interpolation": 2
       }
      ]
     },
     "has_video": {
      "Points": [
       {
        "co": {
         "X": 1.0,
         "Y": -1.0
        },
        "interpolation": 2
       }
      ]
     },
     "id": "HTIBIX1XQ9",
     "layer": 4000000,
     "location_x": {
      "Points": [
       {
        "co": {
         "X": 1.0,
         "Y": 0.0
        },
        "interpolation": 2
       }
      ]
     },
     "location_y": {
      "Points": [
       {
        "co": {
         "X": 1.0,
         "Y": 0.0
        },
        "interpolation": 2
       }
      ]
     },
     "mixing": 0,
     "origin_x": {
      "Points": [
       {
        "co": {
         "X": 1.0,
         "Y": 0.5
        },
        "interpolation": 2
       }
      ]
     },
     "origin_y": {
      "Points": [
       {
        "co": {
         "X": 1.0,
         "Y": 0.5
        },
        "interpolation": 2
       }
      ]
     },
     "parentObjectId": "",
     "perspective_c1_x": {
      "Points": [
       {
        "co": {
         "X": 1.0,
         "Y": -1.0
        },
        "interpolation": 2
       }
      ]
     },
     "perspective_c1_y": {
      "Points": [
       {
        "co": {
         "X": 1.0,
         "Y": -1.0
        },
        "interpolation": 2
       }
      ]
     },
     "perspective_c2_x": {
      "Points": [
       {
        "co": {
         "X": 1.0,
         "Y": -1.0
        },
        "interpolation": 2
       }
      ]
     },
     "perspective_c2_y": {
      "Points": [
       {
        "co": {
         "X": 1.0,
         "Y": -1.0
        },
        "interpolation": 2
       }
      ]
     },
     "perspective_c3_x": {
      "Points": [
       {
        "co": {
         "X": 1.0,
         "Y": -1.0
        },
        "interpolation": 2
       }
      ]
     },
     "perspective_c3_y": {
      "Points": [
       {
        "co": {
         "X": 1.0,
         "Y": -1.0
        },
        "interpolation": 2
       }
      ]
     },
     "perspective_c4_x": {
      "Points": [
       {
        "co": {
         "X": 1.0,
         "Y": -1.0
        },
        "interpolation": 2
       }
      ]
     },
     "perspective_c4_y": {
      "Points": [
       {
        "co": {
         "X": 1.0,
         "Y": -1.0
        },
        "interpolation": 2
       }
      ]
     },
     "position": 0,
     "reader": {
      "acodec": "mp3float",
      "audio_bit_rate": 192000,
      "audio_stream_index": 0,
      "audio_timebase": {
       "den": 14112000,
       "num": 1
      },
      "channel_layout": 3,
      "channels": 2,
      "display_ratio": {
       "den": 1,
       "num": 1
      },
      "duration": 124.60800170898438,
      "file_size": "2990592",
      "fps": {
       "den": 1,
       "num": 24
      },
      "has_audio": true,
      "has_single_image": false,
      "has_video": false,
      "height": 480,
      "interlaced_frame": false,
      "metadata": {},
      "path": "./Mon May 29 2023.mp3",
      "pixel_format": -1,
      "pixel_ratio": {
       "den": 1,
       "num": 1
      },
      "sample_rate": 48000,
      "top_field_first": true,
      "type": "FFmpegReader",
      "vcodec": "",
      "video_bit_rate": 0,
      "video_length": "2990",
      "video_stream_index": -1,
      "video_timebase": {
       "den": 24,
       "num": 1
      },
      "width": 720
     },
     "rotation": {
      "Points": [
       {
        "co": {
         "X": 1.0,
         "Y": 0.0
        },
        "interpolation": 2
       }
      ]
     },
     "scale": 1,
     "scale_x": {
      "Points": [
       {
        "co": {
         "X": 1.0,
         "Y": 1.0
        },
        "interpolation": 2
       }
      ]
     },
     "scale_y": {
      "Points": [
       {
        "co": {
         "X": 1.0,
         "Y": 1.0
        },
        "interpolation": 2
       }
      ]
     },
     "shear_x": {
      "Points": [
       {
        "co": {
         "X": 1.0,
         "Y": 0.0
        },
        "interpolation": 2
       }
      ]
     },
     "shear_y": {
      "Points": [
       {
        "co": {
         "X": 1.0,
         "Y": 0.0
        },
        "interpolation": 2
       }
      ]
     },
     "start": 0,
     "time": {
      "Points": [
       {
        "co": {
         "X": 1.0,
         "Y": 1.0
        },
        "interpolation": 2
       }
      ]
     },
     "volume": {
      "Points": [
       {
        "co": {
         "X": 1.0,
         "Y": 1.0
        },
        "interpolation": 2
       }
      ]
     },
     "wave_color": {
      "alpha": {
       "Points": [
        {
         "co": {
          "X": 1.0,
          "Y": 255.0
         },
         "handle_left": {
          "X": 0.5,
          "Y": 1.0
         },
         "handle_right": {
          "X": 0.5,
          "Y": 0.0
         },
         "handle_type": 0,
         "interpolation": 0
        }
       ]
      },
      "blue": {
       "Points": [
        {
         "co": {
          "X": 1.0,
          "Y": 255.0
         },
         "handle_left": {
          "X": 0.5,
          "Y": 1.0
         },
         "handle_right": {
          "X": 0.5,
          "Y": 0.0
         },
         "handle_type": 0,
         "interpolation": 0
        }
       ]
      },
      "green": {
       "Points": [
        {
         "co": {
          "X": 1.0,
          "Y": 123.0
         },
         "handle_left": {
          "X": 0.5,
          "Y": 1.0
         },
         "handle_right": {
          "X": 0.5,
          "Y": 0.0
         },
         "handle_type": 0,
         "interpolation": 0
        }
       ]
      },
      "red": {
       "Points": [
        {
         "co": {
          "X": 1.0,
          "Y": 0.0
         },
         "handle_left": {
          "X": 0.5,
          "Y": 1.0
         },
         "handle_right": {
          "X": 0.5,
          "Y": 0.0
         },
         "handle_type": 0,
         "interpolation": 0
        }
       ]
      }
     },
     "waveform": false,
     "file_id": "ISB5EJ34SX",
     "title": "Mon May 29 2023.mp3"
    }
   },
   {
    "type": "delete",
    "key": [
     "effects",
     {
      "id": "2ULRKTGUTC"
     }
    ],
    "value": null,
    "partial": false,
    "old_values": {
     "id": "2ULRKTGUTC",
     "layer": 5000000,
     "title": "Transition",
     "type": "Mask",
     "position": 2.3333333333333335,
     "start": 0,
     "end": 6.699999999999999,
     "brightness": {
      "Points": [
       {
        "co": {
         "X": 1,
         "Y": 1
        },
        "handle_left": {
         "X": 0.5,
         "Y": 1
        },
        "handle_right": {
         "X": 0.5,
         "Y": 0
        },
        "handle_type": 0,
        "interpolation": 0
       },
       {
        "co": {
         "X": 202,
         "Y": -1
        },
        "handle_left": {
         "X": 0.5,
         "Y": 1
        },
        "handle_right": {
         "X": 0.5,
         "Y": 0
        },
        "handle_type": 0,
        "interpolation": 0
       }
      ]
     },
     "contrast": {
      "Points": [
       {
        "co": {
         "X": 1,
         "Y": 3
        },
        "interpolation": 2
       }
      ]
     },
     "reader": {
      "acodec": "",
      "audio_bit_rate": 0,
      "audio_stream_index": -1,
      "audio_timebase": {
       "den": 1,
       "num": 1
      },
      "channel_layout": 4,
      "channels": 0,
      "display_ratio": {
       "den": 4,
       "num": 5
      },
      "duration": 3600.0,
      "file_size": "5832000",
      "fps": {
       "den": 1,
       "num": 30
      },
      "has_audio": false,
      "has_single_image": true,
      "has_video": true,
      "height": 576,
      "interlaced_frame": false,
      "metadata": {},
      "path": "@transitions/common/circle_in_to_out.svg",
      "pixel_format": -1,
      "pixel_ratio": {
       "den": 1,
       "num": 1
      },
      "sample_rate": 0,
      "top_field_first": true,
      "type": "QtImageReader",
      "vcodec": "",
      "video_bit_rate": 0,
      "video_length": "108000",
      "video_stream_index": -1,
      "video_timebase": {
       "den": 30,
       "num": 1
      },
      "width": 720
     },
     "replace_image": false
    }
   },
   {
    "type": "insert",
    "key": [
     "effects"
    ],
    "value": {
     "id": "1EQZ7R0O1K",
     "layer": 5000000,
     "title": "Transition",
     "type": "Mask",
     "position": -0.8833333333333363,
     "start": 0,
     "end": 12.700000000000001,
     "brightness": {
      "Points": [
       {
        "co": {
         "X": 1,
         "Y": 1
        },
        "handle_left": {
         "X": 0.5,
         "Y": 1
        },
        "handle_right": {
         "X": 0.5,
         "Y": 0
        },
        "handle_type": 0,
        "interpolation": 0
       },
       {
        "co": {
         "X": 382,
         "Y": -1
        },
        "handle_left": {
         "X": 0.5,
         "Y": 1
        },
        "handle_right": {
         "X": 0.5,
         "Y": 0
        },
        "handle_type": 0,
        "interpolation": 0
       }
      ]
     },
     "contrast": {
      "Points": [
       {
        "co": {
         "X": 1,
         "Y": 3
        },
        "interpolation": 2
       }
      ]
     },
     "reader": {
      "acodec": "",
      "audio_bit_rate": 0,
      "audio_stream_index": -1,
      "audio_timebase": {
       "den": 1,
       "num": 1
      },
      "channel_layout": 4,
      "channels": 0,
      "display_ratio": {
       "den": 4,
       "num": 5
      },
      "duration": 3600.0,
      "file_size": "5832000",
      "fps": {
       "den": 1,
       "num": 30
      },
      "has_audio": false,
      "has_single_image": true,
      "has_video": true,
      "height": 576,
      "interlaced_frame": false,
      "metadata": {},
      "path": "@transitions/common/circle_out_to_in.svg",
      "pixel_format": -1,
      "pixel_ratio": {
       "den": 1,
       "num": 1
      },
      "sample_rate": 0,
      "top_field_first": true,
      "type": "QtImageReader",
      "vcodec": "",
      "video_bit_rate": 0,
      "video_length": "108000",
      "video_stream_index": -1,
      "video_timebase": {
       "den": 30,
       "num": 1
      },
      "width": 720
     },
     "replace_image": false
    },
    "partial": false,
    "old_values": [
     {
      "id": "MZCVW9JSWJ",
      "layer": 5000000,
      "title": "Transition",
      "type": "Mask",
      "position": 13.7,
      "start": 0,
      "end": 5.35,
      "brightness": {
       "Points": [
        {
         "co": {
          "X": 1,
          "Y": 1
         },
         "handle_left": {
          "X": 0.5,
          "Y": 1
         },
         "handle_right": {
          "X": 0.5,
          "Y": 0
         },
         "handle_type": 0,
         "interpolation": 0
        },
        {
         "co": {
          "X": 161,
          "Y": -1
         },
         "handle_left": {
          "X": 0.5,
          "Y": 1
         },
         "handle_right": {
          "X": 0.5,
          "Y": 0
         },
         "handle_type": 0,
         "interpolation": 0
        }
       ]
      },
      "contrast": {
       "Points": [
        {
         "co": {
          "X": 1,
          "Y": 3
         },
         "interpolation": 2
        }
       ]
      },
      "reader": {
       "acodec": "",
       "audio_bit_rate": 0,
       "audio_stream_index": -1,
       "audio_timebase": {
        "den": 1,
        "num": 1
       },
       "channel_layout": 4,
       "channels": 0,
       "display_ratio": {
        "den": 4,
        "num": 5
       },
       "duration": 3600.0,
       "file_size": "5832000",
       "fps": {
        "den": 1,
        "num": 30
       },
       "has_audio": false,
       "has_single_image": true,
       "has_video": true,
       "height": 576,
       "interlaced_frame": false,
       "metadata": {},
       "path": "@transitions/common/circle_in_to_out.svg",
       "pixel_format": -1,
       "pixel_ratio": {
        "den": 1,
        "num": 1
       },
       "sample_rate": 0,
       "top_field_first": true,
       "type": "QtImageReader",
       "vcodec": "",
       "video_bit_rate": 0,
       "video_length": "108000",
       "video_stream_index": -1,
       "video_timebase": {
        "den": 30,
        "num": 1
       },
       "width": 720
      },
      "replace_image": false
     },
     {
      "id": "N9SZ6IL988",
      "layer": 5000000,
      "title": "Transition",
      "type": "Mask",
      "position": 20.850000000000005,
      "start": 0,
      "end": 10,
      "brightness": {
       "Points": [
        {
         "co": {
          "X": 1,
          "Y": 1
         },
         "handle_left": {
          "X": 0.5,
          "Y": 1
         },
         "handle_right": {
          "X": 0.5,
          "Y": 0
         },
         "handle_type": 0,
         "interpolation": 0
        },
        {
         "co": {
          "X": 301,
          "Y": -1
         },
         "handle_left": {
          "X": 0.5,
          "Y": 1
         },
         "handle_right": {
          "X": 0.5,
          "Y": 0
         },
         "handle_type": 0,
         "interpolation": 0
        }
       ]
      },
      "contrast": {
       "Points": [
        {
         "co": {
          "X": 1,
          "Y": 3
         },
         "interpolation": 2
        }
       ]
      },
      "reader": {
       "acodec": "",
       "audio_bit_rate": 0,
       "audio_stream_index": -1,
       "audio_timebase": {
        "den": 1,
        "num": 1
       },
       "channel_layout": 4,
       "channels": 0,
       "display_ratio": {
        "den": 4,
        "num": 5
       },
       "duration": 3600.0,
       "file_size": "5832000",
       "fps": {
        "den": 1,
        "num": 30
       },
       "has_audio": false,
       "has_single_image": true,
       "has_video": true,
       "height": 576,
       "interlaced_frame": false,
       "metadata": {},
       "path": "@transitions/common/wipe_left_to_right.svg",
       "pixel_format": -1,
       "pixel_ratio": {
        "den": 1,
        "num": 1
       },
       "sample_rate": 0,
       "top_field_first": true,
       "type": "QtImageReader",
       "vcodec": "",
       "video_bit_rate": 0,
       "video_length": "108000",
       "video_stream_index": -1,
       "video_timebase": {
        "den": 30,
        "num": 1
       },
       "width": 720
      },
      "replace_image": false
     }
    ]
   },
   {
    "type": "update",
    "key": [
     "effects",
     {
      "id": "1EQZ7R0O1K"
     }
    ],
    "value": {
     "id": "1EQZ7R0O1K",
     "layer": 5000000,
     "position": -0.8833333333333363,
     "start": 0,
     "end": 10,
     "brightness": {
      "Points": [
       {
        "co": {
         "X": 1,
         "Y": 1
        },
        "handle_left": {
         "X": 0.5,
         "Y": 1
        },
        "handle_right": {
         "X": 0.5,
         "Y": 0
        },
        "handle_type": 0,
        "interpolation": 0
       },
       {
        "co": {
         "X": 301,
         "Y": -1
        },
        "handle_left": {
         "X": 0.5,
         "Y": 1
        },
        "handle_right": {
         "X": 0.5,
         "Y": 0
        },
        "handle_type": 0,
        "interpolation": 0
       }
      ]
     },
     "contrast": {
      "Points": [
       {
        "co": {
         "X": 1,
         "Y": 3
        },
        "interpolation": 2
       }
      ]
     }
    },
    "partial": false,
    "old_values": {
     "id": "1EQZ7R0O1K",
     "layer": 5000000.0,
     "title": "Transition",
     "type": "Mask",
     "position": 0.0,
     "start": 0,
     "end": 10,
     "brightness": {
      "Points": [
       {
        "co": {
         "X": 1.0,
         "Y": 1.0
        },
        "handle_left": {
         "X": 0.5,
         "Y": 1.0
        },
        "handle_right": {
         "X": 0.5,
         "Y": 0.0
        },
        "handle_type": 0,
        "interpolation": 0
       },
       {
        "co": {
         "X": 301.0,
         "Y": -1.0
        },
        "handle_left": {
         "X": 0.5,
         "Y": 1.0
        },
        "handle_right": {
         "X": 0.5,
         "Y": 0.0
        },
        "handle_type": 0,
        "interpolation": 0
       }
      ]
     },
     "contrast": {
      "Points": [
       {
        "co": {
         "X": 1.0,
         "Y": 3.0
        },
        "interpolation": 2
       }
      ]
     },
     "reader": {
      "acodec": "",
      "audio_bit_rate": 0,
      "audio_stream_index": -1,
      "audio_timebase": {
       "den": 1,
       "num": 1
      },
      "channel_layout": 4,
      "channels": 0,
      "display_ratio": {
       "den": 4,
       "num": 5
      },
      "duration": 3600.0,
      "file_size": "5832000",
      "fps": {
       "den": 1,
       "num": 30
      },
      "has_audio": false,
      "has_single_image": true,
      "has_video": true,
      "height": 576,
      "interlaced_frame": false,
      "metadata": {},
      "path": "@transitions/common/circle_out_to_in.svg",
      "pixel_format": -1,
      "pixel_ratio": {
       "den": 1,
       "num": 1
      },
      "sample_rate": 0,
      "top_field_first": true,
      "type": "QtImageReader",
      "vcodec": "",
      "video_bit_rate": 0,
      "video_length": "108000",
      "video_stream_index": -1,
      "video_timebase": {
       "den": 30,
       "num": 1
      },
      "width": 720
     },
     "replace_image": false
    }
   },
   {
    "type": "update",
    "key": [
     "effects",
     {
      "id": "MZCVW9JSWJ"
     }
    ],
    "value": {
     "id": "MZCVW9JSWJ",
     "layer": 5000000,
     "position": 13.7,
     "start": 0,
     "end": 5.35,
     "brightness": {
      "Points": [
       {
        "co": {
         "X": 1,
         "Y": 1
        },
        "handle_left": {
         "X": 0.5,
         "Y": 1
        },
        "handle_right": {
         "X": 0.5,
         "Y": 0
        },
        "handle_type": 0,
        "interpolation": 0
       },
       {
        "co": {
         "X": 161,
         "Y": -1
        },
        "handle_left": {
         "X": 0.5,
         "Y": 1
        },
        "handle_right": {
         "X": 0.5,
         "Y": 0
        },
        "handle_type": 0,
        "interpolation": 0
       }
      ]
     },
     "contrast": {
      "Points": [
       {
        "co": {
         "X": 1,
         "Y": 3
        },
        "interpolation": 2
       }
      ]
     }
    },
    "partial": false,
    "old_values": {
     "id": "MZCVW9JSWJ",
     "layer": 5000000,
     "title": "Transition",
     "type": "Mask",
     "position": 13.7,
     "start": 0,
     "end": 5.35,
     "brightness": {
      "Points": [
       {
        "co": {
         "X": 1,
         "Y": 1
        },
        "handle_left": {
         "X": 0.5,
         "Y": 1
        },
        "handle_right": {
         "X": 0.5,
         "Y": 0
        },
        "handle_type": 0,
        "interpolation": 0
       },
       {
        "co": {
         "X": 161,
         "Y": -1
        },
        "handle_left": {
         "X": 0.5,
         "Y": 1
        },
        "handle_right": {
         "X": 0.5,
         "Y": 0
        },
        "handle_type": 0,
        "interpolation": 0
       }
      ]
     },
     "contrast": {
      "Points": [
       {
        "co": {
         "X": 1,
         "Y": 3
        },
        "interpolation": 2
       }
      ]
     },
     "reader": {
      "acodec": "",
      "audio_bit_rate": 0,
      "audio_stream_index": -1,
      "audio_timebase": {
       "den": 1,
       "num": 1
      },
      "channel_layout": 4,
      "channels": 0,
      "display_ratio": {
       "den": 4,
       "num": 5
      },
      "duration": 3600.0,
      "file_size": "5832000",
      "fps": {
       "den": 1,
       "num": 30
      },
      "has_audio": false,
      "has_single_image": true,
      "has_video": true,
      "height": 576,
      "interlaced_frame": false,
      "metadata": {},
      "path": "@transitions/common/circle_in_to_out.svg",
      "pixel_format": -1,
      "pixel_ratio": {
       "den": 1,
       "num": 1
      },
      "sample_rate": 0,
      "top_field_first": true,
      "type": "QtImageReader",
      "vcodec": "",
      "video_bit_rate": 0,
      "video_length": "108000",
      "video_stream_index": -1,
      "video_timebase": {
       "den": 30,
       "num": 1
      },
      "width": 720
     },
     "replace_image": false
    }
   },
   {
    "type": "delete",
    "key": [
     "effects",
     {
      "id": "MZCVW9JSWJ"
     }
    ],
    "value": null,
    "partial": false,
    "old_values": {
     "id": "MZCVW9JSWJ",
     "layer": 5000000,
     "title": "Transition",
     "type": "Mask",
     "position": 13.7,
     "start": 0,
     "end": 5.35,
     "brightness": {
      "Points": [
       {
        "co": {
         "X": 1,
         "Y": 1
        },
        "handle_left": {
         "X": 0.5,
         "Y": 1
        },
        "handle_right": {
         "X": 0.5,
         "Y": 0
        },
        "handle_type": 0,
        "interpolation": 0
       },
       {
        "co": {
         "X": 161,
         "Y": -1
        },
        "handle_left": {
         "X": 0.5,
         "Y": 1
        },
        "handle_right": {
         "X": 0.5,
         "Y": 0
        },
        "handle_type": 0,
        "interpolation": 0
       }
      ]
     },
     "contrast": {
      "Points": [
       {
        "co": {
         "X": 1,
         "Y": 3
        },
        "interpolation": 2
       }
      ]
     },
     "reader": {
      "acodec": "",
      "audio_bit_rate": 0,
      "audio_stream_index": -1,
      "audio_timebase": {
       "den": 1,
       "num": 1
      },
      "channel_layout": 4,
      "channels": 0,
      "display_ratio": {
       "den": 4,
       "num": 5
      },
      "duration": 3600.0,
      "file_size": "5832000",
      "fps": {
       "den": 1,
       "num": 30
      },
      "has_audio": false,
      "has_single_image": true,
      "has_video": true,
      "height": 576,
      "interlaced_frame": false,
      "metadata": {},
      "path": "@transitions/common/circle_in_to_out.svg",
      "pixel_format": -1,
      "pixel_ratio": {
       "den": 1,
       "num": 1
      },
      "sample_rate": 0,
      "top_field_first": true,
      "type": "QtImageReader",
      "vcodec": "",
      "video_bit_rate": 0,
      "video_length": "108000",
      "video_stream_index": -1,
      "video_timebase": {
       "den": 30,
       "num": 1
      },
      "width": 720
     },
     "replace_image": false
    }
   },
   {
    "type": "delete",
    "key": [
     "effects",
     {
      "id": "N9SZ6IL988"
     }
    ],
    "value": null,
    "partial": false,
    "old_values": {
     "id": "N9SZ6IL988",
     "layer": 5000000,
     "title": "Transition",
     "type": "Mask",
     "position": 20.850000000000005,
     "start": 0,
     "end": 10,
     "brightness": {
      "Points": [
       {
        "co": {
         "X": 1,
         "Y": 1
        },
        "handle_left": {
         "X": 0.5,
         "Y": 1
        },
        "handle_right": {
         "X": 0.5,
         "Y": 0
        },
        "handle_type": 0,
        "interpolation": 0
       },
       {
        "co": {
         "X": 301,
         "Y": -1
        },
        "handle_left": {
         "X": 0.5,
         "Y": 1
        },
        "handle_right": {
         "X": 0.5,
         "Y": 0
        },
        "handle_type": 0,
        "interpolation": 0
       }
      ]
     },
     "contrast": {
      "Points": [
       {
        "co": {
         "X": 1,
         "Y": 3
        },
        "interpolation": 2
       }
      ]
     },
     "reader": {
      "acodec": "",
      "audio_bit_rate": 0,
      "audio_stream_index": -1,
      "audio_timebase": {
       "den": 1,
       "num": 1
      },
      "channel_layout": 4,
      "channels": 0,
      "display_ratio": {
       "den": 4,
       "num": 5
      },
      "duration": 3600.0,
      "file_size": "5832000",
      "fps": {
       "den": 1,
       "num": 30
      },
      "has_audio": false,
      "has_single_image": true,
      "has_video": true,
      "height": 576,
      "interlaced_frame": false,
      "metadata": {},
      "path": "@transitions/common/wipe_left_to_right.svg",
      "pixel_format": -1,
      "pixel_ratio": {
       "den": 1,
       "num": 1
      },
      "sample_rate": 0,
      "top_field_first": true,
      "type": "QtImageReader",
      "vcodec": "",
      "video_bit_rate": 0,
      "video_length": "108000",
      "video_stream_index": -1,
      "video_timebase": {
       "den": 30,
       "num": 1
      },
      "width": 720
     },
     "replace_image": false
    }
   },
   {
    "type": "insert",
    "key": [
     "effects"
    ],
    "value": {
     "id": "XX5P3NOR9U",
     "layer": 5000000,
     "title": "Transition",
     "type": "Mask",
     "position": 21.150000000000006,
     "start": 0,
     "end": 10,
     "brightness": {
      "Points": [
       {
        "co": {
         "X": 1,
         "Y": 1
        },
        "handle_left": {
         "X": 0.5,
         "Y": 1
        },
        "handle_right": {
         "X": 0.5,
         "Y": 0
        },
        "handle_type": 0,
        "interpolation": 0
       },
       {
        "co": {
         "X": 301,
         "Y": -1
        },
        "handle_left": {
         "X": 0.5,
         "Y": 1
        },
        "handle_right": {
         "X": 0.5,
         "Y": 0
        },
        "handle_type": 0,
        "interpolation": 0
       }
      ]
     },
     "contrast": {
      "Points": [
       {
        "co": {
         "X": 1,
         "Y": 3
        },
        "interpolation": 2
       }
      ]
     },
     "reader": {
      "acodec": "",
      "audio_bit_rate": 0,
      "audio_stream_index": -1,
      "audio_timebase": {
       "den": 1,
       "num": 1
      },
      "channel_layout": 4,
      "channels": 0,
      "display_ratio": {
       "den": 4,
       "num": 5
      },
      "duration": 3600.0,
      "file_size": "5832000",
      "fps": {
       "den": 1,
       "num": 30
      },
      "has_audio": false,
      "has_single_image": true,
      "has_video": true,
      "height": 576,
      "interlaced_frame": false,
      "metadata": {},
      "path": "@transitions/common/wipe_bottom_to_top.svg",
      "pixel_format": -1,
      "pixel_ratio": {
       "den": 1,
       "num": 1
      },
      "sample_rate": 0,
      "top_field_first": true,
      "type": "QtImageReader",
      "vcodec": "",
      "video_bit_rate": 0,
      "video_length": "108000",
      "video_stream_index": -1,
      "video_timebase": {
       "den": 30,
       "num": 1
      },
      "width": 720
     },
     "replace_image": false
    },
    "partial": false,
    "old_values": [
     {
      "id": "1EQZ7R0O1K",
      "layer": 5000000,
      "title": "Transition",
      "type": "Mask",
      "position": -0.8833333333333363,
      "start": 0,
      "end": 10,
      "brightness": {
       "Points": [
        {
         "co": {
          "X": 1,
          "Y": 1
         },
         "handle_left": {
          "X": 0.5,
          "Y": 1
         },
         "handle_right": {
          "X": 0.5,
          "Y": 0
         },
         "handle_type": 0,
         "interpolation": 0
        },
        {
         "co": {
          "X": 301,
          "Y": -1
         },
         "handle_left": {
          "X": 0.5,
          "Y": 1
         },
         "handle_right": {
          "X": 0.5,
          "Y": 0
         },
         "handle_type": 0,
         "interpolation": 0
        }
       ]
      },
      "contrast": {
       "Points": [
        {
         "co": {
          "X": 1,
          "Y": 3
         },
         "interpolation": 2
        }
       ]
      },
      "reader": {
       "acodec": "",
       "audio_bit_rate": 0,
       "audio_stream_index": -1,
       "audio_timebase": {
        "den": 1,
        "num": 1
       },
       "channel_layout": 4,
       "channels": 0,
       "display_ratio": {
        "den": 4,
        "num": 5
       },
       "duration": 3600.0,
       "file_size": "5832000",
       "fps": {
        "den": 1,
        "num": 30
       },
       "has_audio": false,
       "has_single_image": true,
       "has_video": true,
       "height": 576,
       "interlaced_frame": false,
       "metadata": {},
       "path": "@transitions/common/circle_out_to_in.svg",
       "pixel_format": -1,
       "pixel_ratio": {
        "den": 1,
        "num": 1
       },
       "sample_rate": 0,
       "top_field_first": true,
       "type": "QtImageReader",
       "vcodec": "",
       "video_bit_rate": 0,
       "video_length": "108000",
       "video_stream_index": -1,
       "video_timebase": {
        "den": 30,
        "num": 1
       },
       "width": 720
      },
      "replace_image": false
     }
    ]
   },
   {
    "type": "update",
    "key": [
     "effects",
     {
      "id": "XX5P3NOR9U"
     }
    ],
    "value": {
     "id": "XX5P3NOR9U",
     "layer": 5000000,
     "position": 21.150000000000006,
     "start": 0,
     "end": 10,
     "brightness": {
      "Points": [
       {
        "co": {
         "X": 1,
         "Y": 1
        },
        "handle_left": {
         "X": 0.5,
         "Y": 1
        },
        "handle_right": {
         "X": 0.5,
         "Y": 0
        },
        "handle_type": 0,
        "interpolation": 0
       },
       {
        "co": {
         "X": 301,
         "Y": -1
        },
        "handle_left": {
         "X": 0.5,
         "Y": 1
        },
        "handle_right": {
         "X": 0.5,
         "Y": 0
        },
        "handle_type": 0,
        "interpolation": 0
       }
      ]
     },
     "contrast": {
      "Points": [
       {
        "co": {
         "X": 1,
         "Y": 3
        },
        "interpolation": 2
       }
      ]
     }
    },
    "partial": false,
    "old_values": {
     "id": "XX5P3NOR9U",
     "layer": 5000000.0,
     "title": "Transition",
     "type": "Mask",
     "position": 29.850000000000005,
     "start": 0,
     "end": 10,
     "brightness": {
      "Points": [
       {
        "co": {
         "X": 1.0,
         "Y": 1.0
        },
        "handle_left": {
         "X": 0.5,
         "Y": 1.0
        },
        "handle_right": {
         "X": 0.5,
         "Y": 0.0
        },
        "handle_type": 0,
        "interpolation": 0
       },
       {
        "co": {
         "X": 301.0,
         "Y": -1.0
        },
        "handle_left": {
         "X": 0.5,
         "Y": 1.0
        },
        "handle_right": {
         "X": 0.5,
         "Y": 0.0
        },
        "handle_type": 0,
        "interpolation": 0
       }
      ]
     },
     "contrast": {
      "Points": [
       {
        "co": {
         "X": 1.0,
         "Y": 3.0
        },
        "interpolation": 2
       }
      ]
     },
     "reader": {
      "acodec": "",
      "audio_bit_rate": 0,
      "audio_stream_index": -1,
      "audio_timebase": {
       "den": 1,
       "num": 1
      },
      "channel_layout": 4,
      "channels": 0,
      "display_ratio": {
       "den": 4,
       "num": 5
      },
      "duration": 3600.0,
      "file_size": "5832000",
      "fps": {
       "den": 1,
       "num": 30
      },
      "has_audio": false,
      "has_single_image": true,
      "has_video": true,
      "height": 576,
      "interlaced_frame": false,
      "metadata": {},
      "path": "@transitions/common/wipe_bottom_to_top.svg",
      "pixel_format": -1,
      "pixel_ratio": {
       "den": 1,
       "num": 1
      },
      "sample_rate": 0,
      "top_field_first": true,
      "type": "QtImageReader",
      "vcodec": "",
      "video_bit_rate": 0,
      "video_length": "108000",
      "video_stream_index": -1,
      "video_timebase": {
       "den": 30,
       "num": 1
      },
      "width": 720
     },
     "replace_image": false
    }
   },
   {
    "type": "insert",
    "key": [
     "effects"
    ],
    "value": {
     "id": "G8R5KKBRXE",
     "layer": 5000000,
     "title": "Transition",
     "type": "Mask",
     "position": 31.150000000000006,
     "start": 0,
     "end": 10,
     "brightness": {
      "Points": [
       {
        "co": {
         "X": 1,
         "Y": 1
        },
        "handle_left": {
         "X": 0.5,
         "Y": 1
        },
        "handle_right": {
         "X": 0.5,
         "Y": 0
        },
        "handle_type": 0,
        "interpolation": 0
       },
       {
        "co": {
         "X": 301,
         "Y": -1
        },
        "handle_left": {
         "X": 0.5,
         "Y": 1
        },
        "handle_right": {
         "X": 0.5,
         "Y": 0
        },
        "handle_type": 0,
        "interpolation": 0
       }
      ]
     },
     "contrast": {
      "Points": [
       {
        "co": {
         "X": 1,
         "Y": 3
        },
        "interpolation": 2
       }
      ]
     },
     "reader": {
      "acodec": "",
      "audio_bit_rate": 0,
      "audio_stream_index": -1,
      "audio_timebase": {
       "den": 1,
       "num": 1
      },
      "channel_layout": 4,
      "channels": 0,
      "display_ratio": {
       "den": 4,
       "num": 5
      },
      "duration": 3600.0,
      "file_size": "5832000",
      "fps": {
       "den": 1,
       "num": 30
      },
      "has_audio": false,
      "has_single_image": true,
      "has_video": true,
      "height": 576,
      "interlaced_frame": false,
      "metadata": {},
      "path": "@transitions/common/wipe_left_to_right.svg",
      "pixel_format": -1,
      "pixel_ratio": {
       "den": 1,
       "num": 1
      },
      "sample_rate": 0,
      "top_field_first": true,
      "type": "QtImageReader",
      "vcodec": "",
      "video_bit_rate": 0,
      "video_length": "108000",
      "video_stream_index": -1,
      "video_timebase": {
       "den": 30,
       "num": 1
      },
      "width": 720
     },
     "replace_image": false
    },
    "partial": false,
    "old_values": [
     {
      "id": "1EQZ7R0O1K",
      "layer": 5000000,
      "title": "Transition",
      "type": "Mask",
      "position": -0.8833333333333363,
      "start": 0,
      "end": 10,
      "brightness": {
       "Points": [
        {
         "co": {
          "X": 1,
          "Y": 1
         },
         "handle_left": {
          "X": 0.5,
          "Y": 1
         },
         "handle_right": {
          "X": 0.5,
          "Y": 0
         },
         "handle_type": 0,
         "interpolation": 0
        },
        {
         "co": {
          "X": 301,
          "Y": -1
         },
         "handle_left": {
          "X": 0.5,
          "Y": 1
         },
         "handle_right": {
          "X": 0.5,
          "Y": 0
         },
         "handle_type": 0,
         "interpolation": 0
        }
       ]
      },
      "contrast": {
       "Points": [
        {
         "co": {
          "X": 1,
          "Y": 3
         },
         "interpolation": 2
        }
       ]
      },
      "reader": {
       "acodec": "",
       "audio_bit_rate": 0,
       "audio_stream_index": -1,
       "audio_timebase": {
        "den": 1,
        "num": 1
       },
       "channel_layout": 4,
       "channels": 0,
       "display_ratio": {
        "den": 4,
        "num": 5
       },
       "duration": 3600.0,
       "file_size": "5832000",
       "fps": {
        "den": 1,
        "num": 30
       },
       "has_audio": false,
       "has_single_image": true,
       "has_video": true,
       "height": 576,
       "interlaced_frame": false,
       "metadata": {},
       "path": "@transitions/common/circle_out_to_in.svg",
       "pixel_format": -1,
       "pixel_ratio": {
        "den": 1,
        "num": 1
       },
       "sample_rate": 0,
       "top_field_first": true,
       "type": "QtImageReader",
       "vcodec": "",
       "video_bit_rate": 0,
       "video_length": "108000",
       "video_stream_index": -1,
       "video_timebase": {
        "den": 30,
        "num": 1
       },
       "width": 720
      },
      "replace_image": false
     },
     {
      "id": "XX5P3NOR9U",
      "layer": 5000000,
      "title": "Transition",
      "type": "Mask",
      "position": 21.150000000000006,
      "start": 0,
      "end": 10,
      "brightness": {
       "Points": [
        {
         "co": {
          "X": 1,
          "Y": 1
         },
         "handle_left": {
          "X": 0.5,
          "Y": 1
         },
         "handle_right": {
          "X": 0.5,
          "Y": 0
         },
         "handle_type": 0,
         "interpolation": 0
        },
        {
         "co": {
          "X": 301,
          "Y": -1
         },
         "handle_left": {
          "X": 0.5,
          "Y": 1
         },
         "handle_right": {
          "X": 0.5,
          "Y": 0
         },
         "handle_type": 0,
         "interpolation": 0
        }
       ]
      },
      "contrast": {
       "Points": [
        {
         "co": {
          "X": 1,
          "Y": 3
         },
         "interpolation": 2
        }
       ]
      },
      "reader": {
       "acodec": "",
       "audio_bit_rate": 0,
       "audio_stream_index": -1,
       "audio_timebase": {
        "den": 1,
        "num": 1
       },
       "channel_layout": 4,
       "channels": 0,
       "display_ratio": {
        "den": 4,
        "num": 5
       },
       "duration": 3600.0,
       "file_size": "5832000",
       "fps": {
        "den": 1,
        "num": 30
       },
       "has_audio": false,
       "has_single_image": true,
       "has_video": true,
       "height": 576,
       "interlaced_frame": false,
       "metadata": {},
       "path": "@transitions/common/wipe_bottom_to_top.svg",
       "pixel_format": -1,
       "pixel_ratio": {
        "den": 1,
        "num": 1
       },
       "sample_rate": 0,
       "top_field_first": true,
       "type": "QtImageReader",
       "vcodec": "",
       "video_bit_rate": 0,
       "video_length": "108000",
       "video_stream_index": -1,
       "video_timebase": {
        "den": 30,
        "num": 1
       },
       "width": 720
      },
      "replace_image": false
     }
    ]
   },
   {
    "type": "update",
    "key": [
     "effects",
     {
      "id": "G8R5KKBRXE"
     }
    ],
    "value": {
     "id": "G8R5KKBRXE",
     "layer": 5000000,
     "position": 31.150000000000006,
     "start": 0,
     "end": 10,
     "brightness": {
      "Points": [
       {
        "co": {
         "X": 1,
         "Y": 1
        },
        "handle_left": {
         "X": 0.5,
         "Y": 1
        },
        "handle_right": {
         "X": 0.5,
         "Y": 0
        },
        "handle_type": 0,
        "interpolation": 0
       },
       {
        "co": {
         "X": 301,
         "Y": -1
        },
        "handle_left": {
         "X": 0.5,
         "Y": 1
        },
        "handle_right": {
         "X": 0.5,
         "Y": 0
        },
        "handle_type": 0,
        "interpolation": 0
       }
      ]
     },
     "contrast": {
      "Points": [
       {
        "co": {
         "X": 1,
         "Y": 3
        },
        "interpolation": 2
       }
      ]
     }
    },
    "partial": false,
    "old_values": {
     "id": "G8R5KKBRXE",
     "layer": 5000000.0,
     "title": "Transition",
     "type": "Mask",
     "position": 48.000000000000014,
     "start": 0,
     "end": 10,
     "brightness": {
      "Points": [
       {
        "co": {
         "X": 1.0,
         "Y": 1.0
        },
        "handle_left": {
         "X": 0.5,
         "Y": 1.0
        },
        "handle_right": {
         "X": 0.5,
         "Y": 0.0
        },
        "handle_type": 0,
        "interpolation": 0
       },
       {
        "co": {
         "X": 301.0,
         "Y": -1.0
        },
        "handle_left": {
         "X": 0.5,
         "Y": 1.0
        },
        "handle_right": {
         "X": 0.5,
         "Y": 0.0
        },
        "handle_type": 0,
        "interpolation": 0
       }
      ]
     },
     "contrast": {
      "Points": [
       {
        "co": {
         "X": 1.0,
         "Y": 3.0
        },
        "interpolation": 2
       }
      ]
     },
     "reader": {
      "acodec": "",
      "audio_bit_rate": 0,
      "audio_stream_index": -1,
      "audio_timebase": {
       "den": 1,
       "num": 1
      },
      "channel_layout": 4,
      "channels": 0,
      "display_ratio": {
       "den": 4,
       "num": 5
      },
      "duration": 3600.0,
      "file_size": "5832000",
      "fps": {
       "den": 1,
       "num": 30
      },
      "has_audio": false,
      "has_single_image": true,
      "has_video": true,
      "height": 576,
      "interlaced_frame": false,
      "metadata": {},
      "path": "@transitions/common/wipe_left_to_right.svg",
      "pixel_format": -1,
      "pixel_ratio": {
       "den": 1,
       "num": 1
      },
      "sample_rate": 0,
      "top_field_first": true,
      "type": "QtImageReader",
      "vcodec": "",
      "video_bit_rate": 0,
      "video_length": "108000",
      "video_stream_index": -1,
      "video_timebase": {
       "den": 30,
       "num": 1
      },
      "width": 720
     },
     "replace_image": false
    }
   },
   {
    "type": "update",
    "key": [
     "effects",
     {
      "id": "1EQZ7R0O1K"
     }
    ],
    "value": {
     "id": "1EQZ7R0O1K",
     "layer": 5000000,
     "position": -0.8833333333333363,
     "start": 0,
     "end": 12.700000000000001,
     "brightness": {
      "Points": [
       {
        "co": {
         "X": 1,
         "Y": 1
        },
        "handle_left": {
         "X": 0.5,
         "Y": 1
        },
        "handle_right": {
         "X": 0.5,
         "Y": 0
        },
        "handle_type": 0,
        "interpolation": 0
       },
       {
        "co": {
         "X": 382,
         "Y": -1
        },
        "handle_left": {
         "X": 0.5,
         "Y": 1
        },
        "handle_right": {
         "X": 0.5,
         "Y": 0
        },
        "handle_type": 0,
        "interpolation": 0
       }
      ]
     },
     "contrast": {
      "Points": [
       {
        "co": {
         "X": 1,
         "Y": 3
        },
        "interpolation": 2
       }
      ]
     }
    },
    "partial": false,
    "old_values": {
     "id": "1EQZ7R0O1K",
     "layer": 5000000,
     "title": "Transition",
     "type": "Mask",
     "position": -0.8833333333333363,
     "start": 0,
     "end": 10,
     "brightness": {
      "Points": [
       {
        "co": {
         "X": 1,
         "Y": 1
        },
        "handle_left": {
         "X": 0.5,
         "Y": 1
        },
        "handle_right": {
         "X": 0.5,
         "Y": 0
        },
        "handle_type": 0,
        "interpolation": 0
       },
       {
        "co": {
         "X": 301,
         "Y": -1
        },
        "handle_left": {
         "X": 0.5,
         "Y": 1
        },
        "handle_right": {
         "X": 0.5,
         "Y": 0
        },
        "handle_type": 0,
        "interpolation": 0
       }
      ]
     },
     "contrast": {
      "Points": [
       {
        "co": {
         "X": 1,
         "Y": 3
        },
        "interpolation": 2
       }
      ]
     },
     "reader": {
      "acodec": "",
      "audio_bit_rate": 0,
      "audio_stream_index": -1,
      "audio_timebase": {
       "den": 1,
       "num": 1
      },
      "channel_layout": 4,
      "channels": 0,
      "display_ratio": {
       "den": 4,
       "num": 5
      },
      "duration": 3600.0,
      "file_size": "5832000",
      "fps": {
       "den": 1,
       "num": 30
      },
      "has_audio": false,
      "has_single_image": true,
      "has_video": true,
      "height": 576,
      "interlaced_frame": false,
      "metadata": {},
      "path": "@transitions/common/circle_out_to_in.svg",
      "pixel_format": -1,
      "pixel_ratio": {
       "den": 1,
       "num": 1
      },
      "sample_rate": 0,
      "top_field_first": true,
      "type": "QtImageReader",
      "vcodec": "",
      "video_bit_rate": 0,
      "video_length": "108000",
      "video_stream_index": -1,
      "video_timebase": {
       "den": 30,
       "num": 1
      },
      "width": 720
     },
     "replace_image": false
    }
   }
  ],
  "redo": []
 },
 "version": {
  "openshot-qt": "2.6.0",
  "libopenshot": "0.2.6"
 }
}